<svg xmlns="http://www.w3.org/2000/svg" viewBox="0 0 1200 630" width="1200" height="630" fill="none" stroke-linecap="round"><path d="" stroke="rgba(255,255,255,0.26)" stroke-width="0.9"/><path d="M897.9 624L904 620.8M904 620.8L912 618.1M912 618.1L920 617M920 617L928 617.3M928 617.3L936 618.9M936 618.9L944 621.4M944 621.4L950.1 624M886.2 632L888 630.5M888 630.5L896 625M897.9 624L896 625M950.1 624L952 624.8M952 624.8L960 628.8M960 628.8L965.7 632" stroke="rgba(255,255,255,0.26)" stroke-width="0.9"/><path d="M982.3 56L984 53.9M984 53.9L992 49M992 49L1000 48.6M1000 48.6L1008 51.2M1008 51.2L1016 55.8M1016 55.8L1016.2 56M982.3 56L977 64M1016.2 56L1024 61.6M1024 61.6L1026.8 64M974 72L976 66M977 64L976 66M1026.8 64L1032 68.5M1032 68.5L1035.3 72M974 72L972.9 80M1035.3 72L1040 77.6M1040 77.6L1041.6 80M972.9 80L973.7 88M1041.6 80L1046 88M973.7 88L976 94.2M976 94.2L976.8 96M1046 88L1048 93.2M1048 93.2L1049 96M976.8 96L982.9 104M1049 96L1050.2 104M982.9 104L984 105M984 105L992 111.1M992 111.1L993.5 112M1050.2 104L1049.7 112M993.5 112L1000 115.2M1000 115.2L1008 118.3M1008 118.3L1013.7 120M1044.4 120L1048 116M1049.7 112L1048 116M1013.7 120L1016 120.6M1016 120.6L1024 122.2M1024 122.2L1032 123M1032 123L1040 122.2M1044.4 120L1040 122.2M1120 200L1120 199.9M1120 199.9L1128 193.7M1128 193.7L1136 199.2M1136 199.2L1136.5 200M1120 200L1120 200.1M1120 200.1L1126.6 208M1130.1 208L1136 201.7M1136.5 200L1136 201.7M1126.6 208L1128 208.6M1130.1 208L1128 208.6M896.3 600L904 596M904 596L912 594.2M912 594.2L920 594.3M920 594.3L928 596M928 596L936 598.9M936 598.9L938.3 600M886 608L888 606M888 606L896 600.1M896.3 600L896 600.1M938.3 600L944 602.5M944 602.5L952 606.8M952 606.8L954 608M877.6 616L880 613.4M886 608L880 613.4M954 608L960 611.4M960 611.4L967.6 616M869.9 624L872 621.7M877.6 616L872 621.7M967.6 616L968 616.2M968 616.2L976 621.2M976 621.2L980.4 624M862.3 632L864 630.1M869.9 624L864 630.1M980.4 624L984 626.2M984 626.2L992 631.2M992 631.2L993.3 632" stroke="rgba(255,255,255,0.62)" stroke-width="1.6"/><path d="M970.7 8L976 4.2M976 4.2L984 1.2M984 1.2L992 0.8M992 0.8L1000 2.7M1000 2.7L1008 6.3M1008 6.3L1010.7 8M962.6 16L968 10M970.7 8L968 10M1010.7 8L1016 11.2M1016 11.2L1022.9 16M957 24L960 19.2M962.6 16L960 19.2M1022.9 16L1024 16.7M1024 16.7L1032 22.9M1032 22.9L1033.3 24M957 24L952.8 32M1033.3 24L1040 29.9M1040 29.9L1042.1 32M949.8 40L952 33.8M952.8 32L952 33.8M1042.1 32L1048 38.3M1048 38.3L1049.5 40M949.8 40L947.7 48M1049.5 40L1055.7 48M947.7 48L946.2 56M1055.7 48L1056 48.4M1056 48.4L1061.1 56M946.2 56L944.9 64M1061.1 56L1064 60.6M1064 60.6L1066 64M944.9 64L944.1 72M1066 64L1070.5 72M944.1 72L944 80M1070.5 72L1072 74.8M1072 74.8L1074.6 80M944 80L945 88M1074.6 80L1078.2 88M945 88L947.3 96M1078.2 88L1080 92.1M1080 92.1L1081.7 96M947.3 96L950.9 104M1081.7 96L1085.1 104M950.9 104L952 105.7M952 105.7L956.4 112M1085.1 104L1088 110.3M1088 110.3L1088.9 112M956.4 112L960 116M960 116L964 120M1088.9 112L1093.2 120M964 120L968 123.3M968 123.3L974.2 128M1093.2 120L1096 124.2M1096 124.2L1099 128M974.2 128L976 129.2M976 129.2L984 133.9M984 133.9L987.8 136M1099 128L1104 133.3M1104 133.3L1107.2 136M987.8 136L992 138.1M992 138.1L1000 141.9M1000 141.9L1004.6 144M1107.2 136L1112 139.4M1112 139.4L1120 143.9M1120 143.9L1120.3 144M1004.6 144L1008 145.5M1008 145.5L1016 149.1M1016 149.1L1022.3 152M1120.3 144L1128 147.6M1128 147.6L1136 150.9M1136 150.9L1138.8 152M1022.3 152L1024 152.8M1024 152.8L1032 156.6M1032 156.6L1038.8 160M1138.8 152L1144 154.2M1144 154.2L1152 157.7M1152 157.7L1156.9 160M1038.8 160L1040 160.7M1040 160.7L1048 165.4M1048 165.4L1051.9 168M1156.9 160L1160 161.7M1160 161.7L1168 166.7M1168 166.7L1169.7 168M325.6 176L328 175.1M328 175.1L336 173.7M336 173.7L344 173.8M344 173.8L352 175.5M352 175.5L353.2 176M1051.9 168L1056 171.3M1056 171.3L1060.8 176M1169.7 168L1176 174M1176 174L1177.8 176M313.6 184L320 178.8M325.6 176L320 178.8M353.2 176L360 182.3M360 182.3L361 184M1060.8 176L1064 179.8M1064 179.8L1067 184M1177.8 176L1182.5 184M308.8 192L312 186.1M313.6 184L312 186.1M361 184L361.6 192M1067 184L1071.6 192M1182.5 184L1184 189.6M1184 189.6L1184.6 192M308.8 192L306.4 200M359.3 200L360 197.7M361.6 192L360 197.7M1071.6 192L1072 192.7M1072 192.7L1075.6 200M1184.6 192L1184.3 200M306.4 200L305.5 208M359.3 200L355.1 208M1075.6 200L1079 208M1182 208L1184 201.1M1184.3 200L1184 201.1M305.5 208L305.8 216M349.8 216L352 212.9M355.1 208L352 212.9M1079 208L1080 210.2M1080 210.2L1082.6 216M1182 208L1177.8 216M305.8 216L307.3 224M343.3 224L344 223.3M349.8 216L344 223.3M1082.6 216L1086.4 224M1171.5 224L1176 218.3M1177.8 216L1176 218.3M307.3 224L310.3 232M334.8 232L336 231.2M343.3 224L336 231.2M1086.4 224L1088 227M1088 227L1091.1 232M1163 232L1168 227.4M1171.5 224L1168 227.4M310.3 232L312 235M312 235L320 239.1M320 239.1L328 236.7M334.8 232L328 236.7M1091.1 232L1096 238.6M1096 238.6L1097.4 240M1151.8 240L1152 239.9M1152 239.9L1160 234.3M1163 232L1160 234.3M1097.4 240L1104 245.6M1104 245.6L1109.1 248M1134.1 248L1136 247.5M1136 247.5L1144 244.1M1151.8 240L1144 244.1M1109.1 248L1112 249.2M1112 249.2L1120 250.3M1120 250.3L1128 249.6M1134.1 248L1128 249.6M892.5 560L896 555.6M896 555.6L904 552.4M904 552.4L912 554.5M912 554.5L919.3 560M886.2 568L888 564.8M892.5 560L888 564.8M919.3 560L920 560.4M920 560.4L928 567.1M928 567.1L928.8 568M886.2 568L881 576M928.8 568L936 573.9M936 573.9L938.1 576M876.2 584L880 577.3M881 576L880 577.3M938.1 576L944 580.6M944 580.6L947.9 584M871.1 592L872 590.4M876.2 584L872 590.4M947.9 584L952 587M952 587L958.3 592M871.1 592L865.9 600M958.3 592L960 593.2M960 593.2L968 599M968 599L969.3 600M860.3 608L864 602.6M865.9 600L864 602.6M969.3 600L976 604.6M976 604.6L981 608M854.3 616L856 613.7M860.3 608L856 613.7M981 608L984 610M984 610L992 615.1M992 615.1L993.5 616M136.8 624L144 620.9M144 620.9L152 618.4M152 618.4L160 616.8M160 616.8L168 616.2M168 616.2L176 616.3M176 616.3L184 617.2M184 617.2L192 618.6M192 618.6L200 620.3M200 620.3L208 622.2M208 622.2L215.2 624M327.5 624L328 623.8M328 623.8L336 620.9M336 620.9L344 618.7M344 618.7L352 617.4M352 617.4L360 617.4M360 617.4L368 618.9M368 618.9L376 622.3M376 622.3L378.4 624M847.6 624L848 623.6M854.3 616L848 623.6M993.5 616L1000 620M1000 620L1006.9 624M124.7 632L128 629.4M128 629.4L136 624.4M136.8 624L136 624.4M215.2 624L216 624.2M216 624.2L224 626.1M224 626.1L232 628.2M232 628.2L240 630.6M240 630.6L244.9 632M305.8 632L312 629.9M312 629.9L320 626.9M327.5 624L320 626.9M378.4 624L384 629.4M384 629.4L385.8 632M847.6 624L840.3 632M1006.9 624L1008 624.6M1008 624.6L1016 629.2M1016 629.2L1021.1 632" stroke="rgba(255,255,255,0.26)" stroke-width="0.9"/><path d="M940.6 0L936.6 8M1045.6 0L1048 2.3M1048 2.3L1053.8 8M933.1 16L936 9.3M936.6 8L936 9.3M1053.8 8L1056 10.2M1056 10.2L1061.5 16M933.1 16L930 24M1061.5 16L1064 18.7M1064 18.7L1068.6 24M927.5 32L928 30.3M930 24L928 30.3M1068.6 24L1072 28.4M1072 28.4L1074.8 32M927.5 32L925.6 40M1074.8 32L1080 39.7M1080 39.7L1080.2 40M925.6 40L924.3 48M1080.2 40L1085.2 48M924.3 48L923.4 56M1085.2 48L1088 53M1088 53L1089.7 56M923.4 56L922.7 64M1089.7 56L1093.9 64M922.7 64L922.3 72M1093.9 64L1096 68.3M1096 68.3L1097.9 72M922.3 72L922.5 80M1097.9 72L1101.8 80M922.5 80L923.5 88M1101.8 80L1104 84.4M1104 84.4L1106 88M923.5 88L925.4 96M1106 88L1110.7 96M214 104L216 103.3M216 103.3L219.5 104M925.4 96L928 102.9M928 102.9L928.4 104M1110.7 96L1112 98M1112 98L1116.5 104M214 104L211.1 112M219.5 104L224 105.6M224 105.6L232 110.6M232 110.6L234 112M928.4 104L932.8 112M1116.5 104L1120 108M1120 108L1124.2 112M211.1 112L216 118.6M216 118.6L217.6 120M234 112L240 119M240 119L240.9 120M932.8 112L936 116.6M936 116.6L938.5 120M1124.2 112L1128 115.2M1128 115.2L1135 120M217.6 120L224 123.2M224 123.2L232 126.2M232 126.2L240 127.6M240.9 120L240 127.6M938.5 120L944 126M944 126L946 128M1135 120L1136 120.6M1136 120.6L1144 124.8M1144 124.8L1151.2 128M946 128L952 133.2M952 133.2L955.6 136M1151.2 128L1152 128.3M1152 128.3L1160 131.4M1160 131.4L1168 134.4M1168 134.4L1172 136M271.3 144L272 143.9M272 143.9L280 143.3M280 143.3L288 143.2M288 143.2L296 143.2M296 143.2L304 143.2M304 143.2L312 143.1M312 143.1L320 143.1M320 143.1L328 143M328 143L336 143M336 143L344 142.9M344 142.9L352 143M352 143L360 143.1M360 143.1L368 143.4M368 143.4L376 143.9M376 143.9L376.7 144M955.6 136L960 139.2M960 139.2L967.4 144M1172 136L1176 137.6M1176 137.6L1184 141.1M1184 141.1L1189.7 144M271.3 144L265 152M376.7 144L384 145.3M384 145.3L392 147.9M392 147.9L399.2 152M967.4 144L968 144.4M968 144.4L976 149M976 149L981.4 152M1189.7 144L1192 145.3M1192 145.3L1200 150.5M265 152L265.7 160M399.2 152L400 152.9M400 152.9L404.7 160M981.4 152L984 153.4M984 153.4L992 157.6M992 157.6L996.5 160M265.7 160L266.9 168M404.7 160L406.1 168M996.5 160L1000 161.9M1000 161.9L1008 166.4M1008 166.4L1010.7 168M266.9 168L268.1 176M406.1 168L404.9 176M1010.7 168L1016 171.3M1016 171.3L1023.1 176M268.1 176L269.2 184M404.9 176L402.1 184M1023.1 176L1024 176.6M1024 176.6L1032 182.7M1032 182.7L1033.6 184M269.2 184L270.2 192M398.1 192L400 188.1M402.1 184L400 188.1M1033.6 184L1040 190M1040 190L1042 192M270.2 192L271.1 200M398.1 192L393.3 200M1042 192L1048 199.4M1048 199.4L1048.5 200M271.1 200L271.7 208M387.9 208L392 201.9M393.3 200L392 201.9M1048.5 200L1053.6 208M271.7 208L272 213.1M272 213.1L272.2 216M382.2 216L384 213.5M387.9 208L384 213.5M1053.6 208L1056 212.3M1056 212.3L1057.9 216M272.2 216L272.5 224M382.2 216L376.4 224M1057.9 216L1061.6 224M272.5 224L272.5 232M370.3 232L376 224.5M376.4 224L376 224.5M1061.6 224L1064 229.6M1064 229.6L1065.1 232M1193.7 232L1200 225.8M272.5 232L272.4 240M364.4 240L368 235.2M370.3 232L368 235.2M1065.1 232L1068.5 240M1184.2 240L1192 233.4M1193.7 232L1192 233.4M272.4 240L272 248M358.6 248L360 246.2M364.4 240L360 246.2M1068.5 240L1072 248M1173.5 248L1176 246.1M1176 246.1L1184 240.1M1184.2 240L1184 240.1M271.6 256L272 248.9M272 248L272 248.9M358.6 248L353 256M1072 248L1072 248M1072 248L1076.2 256M1161.8 256L1168 251.8M1173.5 248L1168 251.8M271.6 256L271.3 264M347.4 264L352 257.5M353 256L352 257.5M1076.2 256L1080 262.4M1080 262.4L1081.2 264M1149.2 264L1152 262.3M1152 262.3L1160 257.2M1161.8 256L1160 257.2M271.3 264L271.4 272M341.9 272L344 269.2M347.4 264L344 269.2M1081.2 264L1088 271.7M1088 271.7L1088.4 272M1134 272L1136 271.2M1136 271.2L1144 267M1149.2 264L1144 267M271.4 272L272 277.6M272 277.6L272.3 280M341.9 272L336.4 280M1088.4 272L1096 276.6M1096 276.6L1104 278.6M1104 278.6L1112 278.6M1112 278.6L1120 277.1M1120 277.1L1128 274.5M1134 272L1128 274.5M272.3 280L274.8 288M330 288L336 280.6M336.4 280L336 280.6M274.8 288L279.1 296M322.4 296L328 290.5M330 288L328 290.5M279.1 296L280 297.1M280 297.1L288 303.9M288 303.9L288.2 304M310.8 304L312 303.6M312 303.6L320 298.2M322.4 296L320 298.2M288.2 304L296 306.4M296 306.4L304 306.2M310.8 304L304 306.2M901.1 472L904 470.2M904 470.2L912 467M912 467L920 466.1M920 466.1L928 468.8M928 468.8L931.4 472M890.1 480L896 475.2M901.1 472L896 475.2M931.4 472L936 479M936 479L936.4 480M882.1 488L888 481.8M890.1 480L888 481.8M936.4 480L938.5 488M876 496L880 490.5M882.1 488L880 490.5M938.5 488L939.5 496M871.1 504L872 502.4M876 496L872 502.4M939.5 496L940 504M871.1 504L867.6 512M940 504L940.2 512M867.6 512L864.8 520M940.2 512L940.5 520M862.8 528L864 523M864.8 520L864 523M940.5 520L941.2 528M862.8 528L861.3 536M941.2 528L942.5 536M861.3 536L860 544M942.5 536L944 541.3M944 541.3L944.7 544M860 544L858.8 552M944.7 544L947.7 552M858.8 552L857.3 560M947.7 552L952 559.8M952 559.8L952.1 560M855.5 568L856 565.7M857.3 560L856 565.7M952.1 560L957.6 568M855.5 568L853.3 576M957.6 568L960 570.8M960 570.8L964.5 576M853.3 576L850.5 584M964.5 576L968 579.4M968 579.4L972.7 584M1196.7 584L1200 582.8M165 592L168 591.1M168 591.1L176 589.3M176 589.3L184 587.7M184 587.7L192 586.6M192 586.6L200 585.9M200 585.9L208 585.7M208 585.7L216 586.1M216 586.1L224 587.4M224 587.4L232 589.9M232 589.9L236.2 592M310.6 592L312 591.5M312 591.5L320 589.1M320 589.1L328 587.5M328 587.5L336 586.7M336 586.7L344 586.5M344 586.5L352 586.9M352 586.9L360 587.8M360 587.8L368 589.3M368 589.3L376 591.4M376 591.4L377.6 592M847 592L848 589.7M850.5 584L848 589.7M972.7 584L976 586.8M976 586.8L982.4 592M1181.1 592L1184 590M1184 590L1192 585.7M1196.7 584L1192 585.7M141.9 600L144 599.1M144 599.1L152 596M152 596L160 593.4M165 592L160 593.4M236.2 592L240 593.5M240 593.5L248 597.2M248 597.2L254.6 600M289.5 600L296 597.6M296 597.6L304 594.4M310.6 592L304 594.4M377.6 592L384 594.6M384 594.6L392 598.9M392 598.9L393.6 600M847 592L842.8 600M982.4 592L984 593.2M984 593.2L992 599M992 599L993.5 600M1169.8 600L1176 595.3M1181.1 592L1176 595.3M126.2 608L128 606.9M128 606.9L136 602.7M141.9 600L136 602.7M254.6 600L256 600.5M256 600.5L264 602.2M264 602.2L272 602.8M272 602.8L280 602.2M280 602.2L288 600.5M289.5 600L288 600.5M393.6 600L400 605.2M400 605.2L402.7 608M837.7 608L840 604.4M842.8 600L840 604.4M993.5 600L1000 604.2M1000 604.2L1006.3 608M1159.3 608L1160 607.4M1160 607.4L1168 601.2M1169.8 600L1168 601.2M114.6 616L120 612M126.2 608L120 612M402.7 608L408 614.9M408 614.9L408.7 616M831.7 616L832 615.6M837.7 608L832 615.6M1006.3 608L1008 609M1008 609L1016 613.6M1016 613.6L1020.3 616M1148.4 616L1152 613.4M1159.3 608L1152 613.4M105.7 624L112 618.2M114.6 616L112 618.2M408.7 616L412.6 624M831.7 616L824.7 624M1020.3 616L1024 618M1024 618L1032 622.4M1032 622.4L1035.3 624M1135.5 624L1136 623.7M1136 623.7L1144 618.9M1148.4 616L1144 618.9M98.7 632L104 625.8M105.7 624L104 625.8M412.6 624L415.3 632M816.9 632L824 624.7M824.7 624L824 624.7M1035.3 624L1040 626.4M1040 626.4L1048 629.9M1048 629.9L1053.9 632M1118.1 632L1120 631.3M1120 631.3L1128 627.9M1135.5 624L1128 627.9" stroke="rgba(255,255,255,0.26)" stroke-width="0.9"/><path d="M915.9 0L912.7 8M1092.9 0L1096 3.5M1096 3.5L1100.1 8M1129.2 0L1136 5.9M1136 5.9L1138.7 8M909.7 16L912 10M912.7 8L912 10M1100.1 8L1104 13.3M1104 13.3L1106 16M1138.7 8L1144 11.9M1144 11.9L1150.5 16M909.7 16L907 24M1106 16L1111 24M1150.5 16L1152 17M1152 17L1160 21.8M1160 21.8L1164.5 24M907 24L904.9 32M1111 24L1112 25.6M1112 25.6L1116 32M1164.5 24L1168 26M1168 26L1176 29.5M1176 29.5L1184 31.6M1184 31.6L1190.5 32M1192.7 32L1200 30.9M903.2 40L904 36.4M904.9 32L904 36.4M1116 32L1120 39.4M1120 39.4L1120.4 40M1190.5 32L1192 32.1M1192.7 32L1192 32.1M903.2 40L902.2 48M1120.4 40L1125.5 48M902.2 48L901.5 56M1125.5 48L1128 52.3M1128 52.3L1130.6 56M182.5 64L184 62.9M184 62.9L192 59.4M192 59.4L200 58.2M200 58.2L208 58.5M208 58.5L216 60.1M216 60.1L224 62.7M224 62.7L227.4 64M901.5 56L901 64M1130.6 56L1135.2 64M174.4 72L176 69.9M182.5 64L176 69.9M227.4 64L232 65.9M232 65.9L240 69.5M240 69.5L244.5 72M901 64L900.8 72M1135.2 64L1136 65.4M1136 65.4L1140.4 72M174.4 72L170.1 80M244.5 72L248 74M248 74L256 79.4M256 79.4L256.8 80M900.8 72L901.2 80M1140.4 72L1144 77.1M1144 77.1L1146.7 80M167.6 88L168 86.6M170.1 80L168 86.6M256.8 80L264 85.8M264 85.8L266.6 88M901.2 80L902.3 88M1146.7 80L1152 84.7M1152 84.7L1157 88M167.6 88L166.7 96M266.6 88L272 92.8M272 92.8L275.8 96M902.3 88L904 95M904 95L904.2 96M1157 88L1160 89.6M1160 89.6L1168 92.6M1168 92.6L1176 95M1176 95L1179.8 96M166.7 96L167 104M275.8 96L280 99.7M280 99.7L285.6 104M904.2 96L907.1 104M1179.8 96L1184 96.9M1184 96.9L1192 98.7M1192 98.7L1200 101.2M167 104L168 110.3M168 110.3L168.3 112M285.6 104L288 105.8M288 105.8L296 110.9M296 110.9L298.1 112M907.1 104L911 112M168.3 112L171 120M298.1 112L304 114.8M304 114.8L312 117.7M312 117.7L320 119.7M320 119.7L321.8 120M911 112L912 113.6M912 113.6L916 120M171 120L174.9 128M321.8 120L328 121.1M328 121.1L336 121.9M336 121.9L344 122.4M344 122.4L352 122.5M352 122.5L360 122.3M360 122.3L368 122M368 122L376 121.6M376 121.6L384 121.3M384 121.3L392 121.4M392 121.4L400 122M400 122L408 123.4M408 123.4L416 125.8M416 125.8L421.2 128M916 120L920 125.1M920 125.1L922.3 128M174.9 128L176 129.7M176 129.7L180.7 136M421.2 128L424 129.6M424 129.6L432 135.5M432 135.5L432.6 136M922.3 128L928 133.9M928 133.9L930.1 136M180.7 136L184 139.7M184 139.7L188.3 144M432.6 136L438.1 144M930.1 136L936 141.1M936 141.1L939.6 144M188.3 144L192 147.2M192 147.2L197.8 152M438.1 144L440 152M939.6 144L944 147.2M944 147.2L951 152M197.8 152L200 153.7M200 153.7L208 159.9M208 159.9L208.1 160M440 152L439.3 160M951 152L952 152.6M952 152.6L960 157.5M960 157.5L964.3 160M208.1 160L216 166.4M216 166.4L217.8 168M439.3 160L436.9 168M964.3 160L968 162.1M968 162.1L976 166.6M976 166.6L978.5 168M217.8 168L224 174M224 174L225.9 176M436.9 168L433.2 176M978.5 168L984 171.2M984 171.2L992 176M992 176L992.1 176M225.9 176L232 183.5M232 183.5L232.4 184M428.6 184L432 178M433.2 176L432 178M992.1 176L1000 181.3M1000 181.3L1003.9 184M232.4 184L237.4 192M423.4 192L424 191M428.6 184L424 191M1003.9 184L1008 187.3M1008 187.3L1013.7 192M237.4 192L240 197.6M240 197.6L241.1 200M423.4 192L417.6 200M1013.7 192L1016 194.2M1016 194.2L1021.9 200M241.1 200L243.7 208M411.5 208L416 202.1M417.6 200L416 202.1M1021.9 200L1024 202.5M1024 202.5L1028.7 208M243.7 208L245.3 216M405.2 216L408 212.4M411.5 208L408 212.4M1028.7 208L1032 212.8M1032 212.8L1034.1 216M245.3 216L246.2 224M399 224L400 222.7M405.2 216L400 222.7M1034.1 216L1038.6 224M246.2 224L246.5 232M399 224L392.8 232M1038.6 224L1040 227.2M1040 227.2L1042.1 232M246.5 232L246.2 240M386.8 240L392 233.1M392.8 232L392 233.1M1042.1 232L1045.1 240M246.2 240L245.5 248M381.1 248L384 243.9M386.8 240L384 243.9M1045.1 240L1047.7 248M245.5 248L244.5 256M375.5 256L376 255.3M381.1 248L376 255.3M1047.7 248L1048 249.1M1048 249.1L1050.1 256M1191.1 256L1192 255.4M1192 255.4L1200 250.1M244.5 256L243.5 264M375.5 256L370.1 264M1050.1 256L1052.5 264M1179.2 264L1184 260.7M1191.1 256L1184 260.7M243.5 264L242.8 272M364.9 272L368 267.2M370.1 264L368 267.2M1052.5 264L1054.9 272M1167.4 272L1168 271.6M1168 271.6L1176 266.2M1179.2 264L1176 266.2M242.8 272L242.8 280M364.9 272L360.1 280M1054.9 272L1056 276.1M1056 276.1L1057.3 280M1155 280L1160 276.8M1167.4 272L1160 276.8M242.8 280L243.6 288M355.2 288L360 280.1M360.1 280L360 280.1M1057.3 280L1060 288M1141.5 288L1144 286.6M1144 286.6L1152 281.8M1155 280L1152 281.8M243.6 288L245.3 296M350.4 296L352 293.4M355.2 288L352 293.4M1060 288L1063.5 296M1125.9 296L1128 295.1M1128 295.1L1136 291M1141.5 288L1136 291M245.3 296L248 303.8M248 303.8L248.1 304M350.4 296L345.3 304M1063.5 296L1064 296.9M1064 296.9L1070.6 304M1105.7 304L1112 301.9M1112 301.9L1120 298.7M1125.9 296L1120 298.7M248.1 304L252.2 312M339.7 312L344 306.1M345.3 304L344 306.1M1070.6 304L1072 304.9M1072 304.9L1080 307.5M1080 307.5L1088 307.7M1088 307.7L1096 306.5M1096 306.5L1104 304.6M1105.7 304L1104 304.6M252.2 312L256 317.7M256 317.7L257.8 320M333.2 320L336 316.9M339.7 312L336 316.9M257.8 320L264 326.8M264 326.8L265.3 328M325.1 328L328 325.6M333.2 320L328 325.6M265.3 328L272 333.2M272 333.2L277.1 336M313.2 336L320 332.1M325.1 328L320 332.1M277.1 336L280 337.5M280 337.5L288 339.8M288 339.8L296 340.5M296 340.5L304 339.4M304 339.4L312 336.7M313.2 336L312 336.7M929.4 416L936 412.5M936 412.5L944 411.6M944 411.6L950.9 416M918.6 424L920 422.6M920 422.6L928 416.6M929.4 416L928 416.6M950.9 416L952 417.1M952 417.1L955.1 424M909.5 432L912 429.5M918.6 424L912 429.5M955.1 424L957.6 432M900.8 440L904 436.8M909.5 432L904 436.8M957.6 432L959.8 440M892.1 448L896 444.2M900.8 440L896 444.2M959.8 440L960 440.9M960 440.9L961.4 448M883.5 456L888 451.6M892.1 448L888 451.6M961.4 448L963 456M875.2 464L880 459.2M883.5 456L880 459.2M963 456L964.2 464M867.4 472L872 467.2M875.2 464L872 467.2M964.2 464L965 472M245.2 480L248 478.3M248 478.3L256 474.9M256 474.9L264 473.1M264 473.1L272 473.3M272 473.3L280 475.8M280 475.8L286.7 480M860.4 480L864 475.8M867.4 472L864 475.8M965 472L965.2 480M234.4 488L240 483.5M245.2 480L240 483.5M286.7 480L288 480.9M288 480.9L294.5 488M854.3 488L856 485.7M860.4 480L856 485.7M965.2 480L964.9 488M226 496L232 490.2M234.4 488L232 490.2M294.5 488L296 489.9M296 489.9L299.7 496M854.3 488L849.1 496M964.9 488L964.4 496M219.1 504L224 498.2M226 496L224 498.2M299.7 496L303.9 504M845 504L848 498.2M849.1 496L848 498.2M964.4 496L963.8 504M213.2 512L216 508M219.1 504L216 508M303.9 504L304 504.1M304 504.1L307.2 512M845 504L841.8 512M963.8 504L963.2 512M207.9 520L208 519.8M213.2 512L208 519.8M307.2 512L310.4 520M839.3 520L840 517.8M841.8 512L840 517.8M963.2 512L963 520M207.9 520L203.2 528M310.4 520L312 523.8M312 523.8L313.8 528M839.3 520L837.6 528M963 520L963.3 528M198 536L200 532.9M203.2 528L200 532.9M313.8 528L317.8 536M837.6 528L836.2 536M963.3 528L964.3 536M198 536L192.1 544M317.8 536L320 539.4M320 539.4L323.4 544M836.2 536L835.2 544M964.3 536L966.2 544M185 552L192 544.1M192.1 544L192 544.1M323.4 544L328 548.5M328 548.5L332.3 552M835.2 544L834.2 552M966.2 544L968 548.8M968 548.8L969.2 552M1188.1 552L1192 549.5M1192 549.5L1200 544.8M175.8 560L176 559.8M176 559.8L184 552.9M185 552L184 552.9M332.3 552L336 554.3M336 554.3L344 558.5M344 558.5L347.4 560M834.2 552L833.1 560M969.2 552L973.5 560M1176.9 560L1184 554.7M1188.1 552L1184 554.7M164.2 568L168 565.5M175.8 560L168 565.5M347.4 560L352 561.8M352 561.8L360 564.7M360 564.7L368 567.3M368 567.3L370.1 568M831.6 568L832 565.9M833.1 560L832 565.9M973.5 560L976 563.6M976 563.6L979.2 568M1167.5 568L1168 567.5M1168 567.5L1176 560.7M1176.9 560L1176 560.7M150.2 576L152 575M152 575L160 570.4M164.2 568L160 570.4M370.1 568L376 570M376 570L384 572.9M384 572.9L391.4 576M831.6 568L829.7 576M979.2 568L984 573.4M984 573.4L986.5 576M1158.9 576L1160 574.9M1167.5 568L1160 574.9M135.5 584L136 583.7M136 583.7L144 579.3M150.2 576L144 579.3M391.4 576L392 576.3M392 576.3L400 580.5M400 580.5L405.5 584M829.7 576L827 584M986.5 576L992 581M992 581L995.5 584M1150.6 584L1152 582.6M1158.9 576L1152 582.6M121.7 592L128 588.2M135.5 584L128 588.2M405.5 584L408 585.8M408 585.8L415.3 592M823.6 592L824 591.1M827 584L824 591.1M995.5 584L1000 587.3M1000 587.3L1006.6 592M1142 592L1144 590.2M1150.6 584L1144 590.2M109.7 600L112 598.3M112 598.3L120 593M121.7 592L120 593M415.3 592L416 592.7M416 592.7L422.3 600M823.6 592L819.3 600M1006.6 592L1008 592.9M1008 592.9L1016 597.9M1016 597.9L1019.5 600M1132.5 600L1136 597.2M1142 592L1136 597.2M99.4 608L104 604.3M109.7 600L104 604.3M422.3 600L424 602.4M424 602.4L427.6 608M814 608L816 605.1M819.3 600L816 605.1M1019.5 600L1024 602.6M1024 602.6L1032 607.1M1032 607.1L1033.8 608M1120.9 608L1128 603.4M1132.5 600L1128 603.4M90.8 616L96 611M99.4 608L96 611M427.6 608L431.7 616M807.6 616L808 615.6M814 608L808 615.6M1033.8 608L1040 611.1M1040 611.1L1048 614.5M1048 614.5L1052.6 616M1104.2 616L1112 612.8M1112 612.8L1120 608.6M1120.9 608L1120 608.6M83.5 624L88 619M90.8 616L88 619M431.7 616L432 616.9M432 616.9L434.5 624M799.9 624L800 623.9M807.6 616L800 623.9M1052.6 616L1056 617.2M1056 617.2L1064 619.1M1064 619.1L1072 620.2M1072 620.2L1080 620.5M1080 620.5L1088 619.9M1088 619.9L1096 618.5M1096 618.5L1104 616.1M1104.2 616L1104 616.1M77.6 632L80 628.7M83.5 624L80 628.7M434.5 624L436.6 632M790.3 632L792 630.7M799.9 624L792 630.7" stroke="rgba(255,255,255,0.26)" stroke-width="0.9"/><path d="M14.8 0L9 8M887.4 8L888 6.7M890.8 0L888 6.7M0.3 16L8 9M9 8L8 9M887.4 8L883.9 16M0.3 16L0 16.3M883.9 16L880.8 24M172 32L176 30.7M176 30.7L184 29.2M184 29.2L192 28.7M192 28.7L200 29.2M200 29.2L208 30.5M208 30.5L213.8 32M878 32L880 26.6M880.8 24L880 26.6M158.8 40L160 38.9M160 38.9L168 33.7M172 32L168 33.7M213.8 32L216 32.6M216 32.6L224 35.4M224 35.4L232 38.7M232 38.7L234.7 40M878 32L876 40M158.8 40L152.9 48M234.7 40L240 42.6M240 42.6L248 47.1M248 47.1L249.4 48M876 40L874.8 48M149.7 56L152 49.9M152.9 48L152 49.9M249.4 48L256 52.4M256 52.4L260.8 56M874.8 48L874.2 56M149.7 56L147.6 64M260.8 56L264 58.4M264 58.4L271 64M874.2 56L873.9 64M147.6 64L146.2 72M271 64L272 64.9M272 64.9L280 71.6M280 71.6L280.4 72M873.9 64L873.9 72M146.2 72L145.3 80M280.4 72L288 78.5M288 78.5L289.9 80M873.9 72L874.5 80M145.3 80L144.9 88M289.9 80L296 84.8M296 84.8L300.5 88M874.5 80L876.1 88M144.9 88L145 96M300.5 88L304 90.4M304 90.4L312 94.9M312 94.9L314.4 96M876.1 88L878.8 96M145 96L145.6 104M314.4 96L320 98.4M320 98.4L328 100.9M328 100.9L336 102.5M336 102.5L344 103.5M344 103.5L352 103.9M352 103.9L360 103.7M360 103.7L368 103.2M368 103.2L376 102.4M376 102.4L384 101.6M384 101.6L392 101M392 101L400 100.7M400 100.7L408 100.9M408 100.9L416 101.8M416 101.8L424 103.2M424 103.2L427.4 104M878.8 96L880 98.4M880 98.4L882.3 104M145.6 104L146.8 112M427.4 104L432 105.2M432 105.2L440 107.5M440 107.5L448 110.2M448 110.2L452.7 112M882.3 104L886.8 112M146.8 112L148.5 120M452.7 112L456 113.6M456 113.6L464 118.3M464 118.3L466.2 120M886.8 112L888 113.8M888 113.8L892 120M148.5 120L150.9 128M466.2 120L472 126.7M472 126.7L472.8 128M892 120L896 125.1M896 125.1L898.1 128M150.9 128L152 130.8M152 130.8L154.3 136M472.8 128L475.5 136M898.1 128L904 134.6M904 134.6L905.2 136M154.3 136L158.8 144M475.5 136L475.7 144M905.2 136L912 142.6M912 142.6L913.5 144M158.8 144L160 145.7M160 145.7L164.9 152M475.7 144L473.8 152M913.5 144L920 149.5M920 149.5L923.1 152M164.9 152L168 155.4M168 155.4L172.7 160M470.2 160L472 155.9M473.8 152L472 155.9M923.1 152L928 155.6M928 155.6L934.4 160M172.7 160L176 162.9M176 162.9L182 168M470.2 160L465.2 168M934.4 160L936 161M936 161L944 166M944 166L947.4 168M182 168L184 169.6M184 169.6L191.7 176M459.3 176L464 169.6M465.2 168L464 169.6M947.4 168L952 170.7M952 170.7L960 175.2M960 175.2L961.4 176M191.7 176L192 176.3M192 176.3L200 183.6M200 183.6L200.4 184M452.8 184L456 179.9M459.3 176L456 179.9M961.4 176L968 179.9M968 179.9L974.9 184M200.4 184L207.5 192M446.1 192L448 189.6M452.8 184L448 189.6M974.9 184L976 184.7M976 184.7L984 190.1M984 190.1L986.7 192M207.5 192L208 192.6M208 192.6L212.9 200M439.4 200L440 199.2M446.1 192L440 199.2M986.7 192L992 196.3M992 196.3L996.3 200M212.9 200L216 206.1M216 206.1L216.9 208M439.4 200L432.7 208M996.3 200L1000 203.8M1000 203.8L1003.9 208M216.9 208L219.6 216M426.1 216L432 208.9M432.7 208L432 208.9M1003.9 208L1008 213.4M1008 213.4L1010 216M219.6 216L221.2 224M419.6 224L424 218.6M426.1 216L424 218.6M1010 216L1014.7 224M221.2 224L222 232M413.1 232L416 228.4M419.6 224L416 228.4M1014.7 224L1016 226.9M1016 226.9L1018.4 232M222 232L221.9 240M406.9 240L408 238.6M413.1 232L408 238.6M1018.4 232L1021.2 240M221.9 240L221.3 248M406.9 240L400.9 248M1021.2 240L1023.4 248M221.3 248L220.3 256M395.1 256L400 249.2M400.9 248L400 249.2M1023.4 248L1024 250.8M1024 250.8L1025.1 256M220.3 256L219.3 264M389.5 264L392 260.4M395.1 256L392 260.4M1025.1 256L1026.6 264M219.3 264L218.5 272M389.5 264L384.1 272M1026.6 264L1027.7 272M1196.4 272L1200 269.9M218.5 272L218.3 280M379.1 280L384 272.2M384.1 272L384 272.2M1027.7 272L1028.2 280M1182.7 280L1184 279.2M1184 279.2L1192 274.4M1196.4 272L1192 274.4M218.3 280L218.7 288M374.4 288L376 285.3M379.1 280L376 285.3M1028.2 280L1028 288M1169.4 288L1176 283.9M1182.7 280L1176 283.9M218.7 288L219.9 296M374.4 288L369.9 296M1028 288L1027 296M1156.2 296L1160 293.7M1160 293.7L1168 288.8M1169.4 288L1168 288.8M219.9 296L221.9 304M365.6 304L368 299.6M369.9 296L368 299.6M1027 296L1025.3 304M1142.6 304L1144 303.2M1144 303.2L1152 298.5M1156.2 296L1152 298.5M221.9 304L224 310.1M224 310.1L224.7 312M365.6 304L361.3 312M1022.8 312L1024 308.2M1025.3 304L1024 308.2M1128.6 312L1136 307.8M1142.6 304L1136 307.8M224.7 312L228.5 320M356.8 320L360 314.5M361.3 312L360 314.5M1022.8 312L1019.4 320M1113.8 320L1120 316.7M1120 316.7L1128 312.3M1128.6 312L1128 312.3M228.5 320L232 326.2M232 326.2L233.1 328M356.8 320L352.1 328M1015 328L1016 326.5M1019.4 320L1016 326.5M1098.4 328L1104 325.1M1104 325.1L1112 321M1113.8 320L1112 321M233.1 328L238.6 336M346.8 336L352 328.2M352.1 328L352 328.2M1015 328L1008.8 336M1082.9 336L1088 333.4M1088 333.4L1096 329.3M1098.4 328L1096 329.3M238.6 336L240 337.8M240 337.8L245 344M340.7 344L344 340M346.8 336L344 340M997 344L1000 342.7M1000 342.7L1008 336.9M1008.8 336L1008 336.9M1067.7 344L1072 341.8M1072 341.8L1080 337.6M1082.9 336L1080 337.6M245 344L248 347.5M248 347.5L252.4 352M333.5 352L336 349.5M340.7 344L336 349.5M960.7 352L968 350.6M968 350.6L976 349.3M976 349.3L984 347.9M984 347.9L992 346M997 344L992 346M1052.8 352L1056 350.4M1056 350.4L1064 346M1067.7 344L1064 346M252.4 352L256 355.7M256 355.7L261.1 360M324.3 360L328 357.2M333.5 352L328 357.2M937.9 360L944 357.1M944 357.1L952 354.3M952 354.3L960 352.1M960.7 352L960 352.1M1038.1 360L1040 359M1040 359L1048 354.6M1052.8 352L1048 354.6M261.1 360L264 362.6M264 362.6L272 367.8M272 367.8L272.5 368M311.8 368L312 367.9M312 367.9L320 363.3M324.3 360L320 363.3M926.5 368L928 366.6M928 366.6L936 361M937.9 360L936 361M1024.6 368L1032 363.3M1038.1 360L1032 363.3M272.5 368L280 371.5M280 371.5L288 373.3M288 373.3L296 373.2M296 373.2L304 371.4M311.8 368L304 371.4M918.9 376L920 374.6M926.5 368L920 374.6M1015.2 376L1016 375M1016 375L1024 368.4M1024.6 368L1024 368.4M918.9 376L913 384M1015.2 376L1009 384M908 392L912 385.4M913 384L912 385.4M1004.2 392L1008 385.4M1009 384L1008 385.4M903.1 400L904 398.3M908 392L904 398.3M1004.2 392L1000.2 400M903.1 400L898.3 408M996.9 408L1000 400.5M1000.2 400L1000 400.5M893.2 416L896 411.4M898.3 408L896 411.4M996.9 408L994.2 416M887.5 424L888 423.3M893.2 416L888 423.3M994.2 416L992.1 424M887.5 424L881.4 432M990.5 432L992 424.4M992.1 424L992 424.4M874.6 440L880 433.6M881.4 432L880 433.6M990.5 432L989.6 440M251.9 448L256 445.8M256 445.8L264 443.1M264 443.1L272 441.8M272 441.8L280 442.4M280 442.4L288 445.1M288 445.1L292.5 448M867.2 448L872 442.8M874.6 440L872 442.8M989.6 440L989.1 448M238.1 456L240 454.7M240 454.7L248 449.8M251.9 448L248 449.8M292.5 448L296 450.2M296 450.2L302 456M859.4 456L864 451.3M867.2 448L864 451.3M989.1 448L989 456M227.1 464L232 460.3M238.1 456L232 460.3M302 456L304 458M304 458L308.5 464M851.6 464L856 459.5M859.4 456L856 459.5M989 456L988.9 464M217.4 472L224 466.4M227.1 464L224 466.4M308.5 464L312 469.2M312 469.2L313.6 472M844 472L848 467.8M851.6 464L848 467.8M988.9 464L988.6 472M209.2 480L216 473.2M217.4 472L216 473.2M313.6 472L317.8 480M836.9 480L840 476.6M844 472L840 476.6M988.6 472L987.9 480M202.3 488L208 481.3M209.2 480L208 481.3M317.8 480L320 484.6M320 484.6L321.5 488M830.7 488L832 486.4M836.9 480L832 486.4M987.9 480L986.9 488M196.3 496L200 491M202.3 488L200 491M321.5 488L325.1 496M830.7 488L825.5 496M986.9 488L985.7 496M190.9 504L192 502.3M196.3 496L192 502.3M325.1 496L328 502.3M328 502.3L328.8 504M821.2 504L824 498.8M825.5 496L824 498.8M985.7 496L984.6 504M190.9 504L185.8 512M328.8 504L332.8 512M821.2 504L818 512M983.6 512L984 508.7M984.6 504L984 508.7M180.8 520L184 514.9M185.8 512L184 514.9M332.8 512L336 517.7M336 517.7L337.4 520M815.5 520L816 518.4M818 512L816 518.4M983.6 512L983.1 520M175.4 528L176 527.1M180.8 520L176 527.1M337.4 520L343.4 528M815.5 520L813.7 528M983.1 520L983.2 528M1190.2 528L1192 526.8M1192 526.8L1200 522.1M175.4 528L169.3 536M343.4 528L344 528.7M344 528.7L351.5 536M813.7 528L812.3 536M983.2 528L984 534.3M984 534.3L984.2 536M1178.5 536L1184 532.1M1190.2 528L1184 532.1M162.2 544L168 537.5M169.3 536L168 537.5M351.5 536L352 536.4M352 536.4L360 542M360 542L363.4 544M812.3 536L811.2 544M984.2 536L986.4 544M1168.3 544L1176 537.9M1178.5 536L1176 537.9M153.6 552L160 546.1M162.2 544L160 546.1M363.4 544L368 546.4M368 546.4L376 550.2M376 550.2L380.2 552M811.2 544L810.2 552M986.4 544L989.8 552M1159.2 552L1160 551.3M1160 551.3L1168 544.2M1168.3 544L1168 544.2M143.4 560L144 559.5M144 559.5L152 553.3M153.6 552L152 553.3M380.2 552L384 553.6M384 553.6L392 556.9M392 556.9L398.9 560M810.2 552L809.1 560M989.8 552L992 555.7M992 555.7L994.8 560M1150.7 560L1152 558.8M1159.2 552L1152 558.8M131.7 568L136 565.1M143.4 560L136 565.1M398.9 560L400 560.5M400 560.5L408 564.6M408 564.6L413.8 568M807.5 568L808 565.7M809.1 560L808 565.7M994.8 560L1000 566.3M1000 566.3L1001.5 568M1142.5 568L1144 566.5M1150.7 560L1144 566.5M119.3 576L120 575.5M120 575.5L128 570.4M131.7 568L128 570.4M413.8 568L416 569.4M416 569.4L424 575.3M424 575.3L424.9 576M807.5 568L805.4 576M1001.5 568L1008 574M1008 574L1010.3 576M1134 576L1136 574.2M1142.5 568L1136 574.2M107.2 584L112 580.8M119.3 576L112 580.8M424.9 576L432 582.6M432 582.6L433.4 584M805.4 576L802.5 584M1010.3 576L1016 580.3M1016 580.3L1021.1 584M1124.7 584L1128 581.3M1134 576L1128 581.3M95.9 592L96 591.9M96 591.9L104 586.2M107.2 584L104 586.2M433.4 584L439.9 592M798.6 592L800 589.3M802.5 584L800 589.3M1021.1 584L1024 585.9M1024 585.9L1032 591.1M1032 591.1L1033.6 592M1113.7 592L1120 587.7M1124.7 584L1120 587.7M85.7 600L88 598.2M95.9 592L88 598.2M439.9 592L440 592.2M440 592.2L444.8 600M798.6 592L793.4 600M1033.6 592L1040 595.4M1040 595.4L1048 599M1048 599L1050.9 600M1097.7 600L1104 597.4M1104 597.4L1112 593.1M1113.7 592L1112 593.1M76.6 608L80 605M85.7 600L80 605M444.8 600L448 606.6M448 606.6L448.6 608M786.5 608L792 601.8M793.4 600L792 601.8M1050.9 600L1056 601.7M1056 601.7L1064 603.4M1064 603.4L1072 604.2M1072 604.2L1080 604M1080 604L1088 602.9M1088 602.9L1096 600.7M1097.7 600L1096 600.7M68.5 616L72 612.6M76.6 608L72 612.6M448.6 608L451.5 616M777.2 616L784 610.4M786.5 608L784 610.4M61.4 624L64 621.1M68.5 616L64 621.1M451.5 616L453.7 624M763.8 624L768 621.8M768 621.8L776 616.9M777.2 616L776 616.9M55.2 632L56 631M61.4 624L56 631M453.7 624L455.4 632M741.7 632L744 631.4M744 631.4L752 628.8M752 628.8L760 625.8M763.8 624L760 625.8" stroke="rgba(255,255,255,0.26)" stroke-width="0.9"/><path d="M55.4 8L56 6.9M60 0L56 6.9M151.7 8L152 7.9M152 7.9L160 6.3M160 6.3L168 5.1M168 5.1L176 4.3M176 4.3L184 4.1M184 4.1L192 4.3M192 4.3L200 5.1M200 5.1L208 6.5M208 6.5L213.8 8M789.6 8L792 6.2M792 6.2L800 2.9M800 2.9L808 1.7M808 1.7L816 2M816 2L824 2.7M824 2.7L832 3M832 3L840 1.6M843.5 0L840 1.6M55.4 8L48.1 16M130.8 16L136 13.4M136 13.4L144 10.3M151.7 8L144 10.3M213.8 8L216 8.5M216 8.5L224 11.1M224 11.1L232 14.2M232 14.2L235.8 16M781.3 16L784 12.6M789.6 8L784 12.6M39 24L40 23.1M40 23.1L48 16.1M48.1 16L48 16.1M122.2 24L128 18.2M130.8 16L128 18.2M235.8 16L240 17.9M240 17.9L248 22.2M248 22.2L250.8 24M781.3 16L776.6 24M28.6 32L32 29.3M39 24L32 29.3M119.1 32L120 29.4M122.2 24L120 29.4M250.8 24L256 27.4M256 27.4L262.3 32M774.2 32L776 25.4M776.6 24L776 25.4M16.3 40L24 35M28.6 32L24 35M119.1 32L118.7 40M262.3 32L264 33.3M264 33.3L272 39.8M272 39.8L272.2 40M774.2 32L773.2 40M0.1 48L8 44.4M8 44.4L16 40.2M16.3 40L16 40.2M118.7 40L119.6 48M272.2 40L280 46.7M280 46.7L281.5 48M773.2 40L773.3 48M0.1 48L0 48M119.6 48L120 49.8M120 49.8L121 56M281.5 48L288 53.6M288 53.6L290.9 56M773.3 48L774.1 56M121 56L122.3 64M290.9 56L296 60.2M296 60.2L300.9 64M774.1 56L775.1 64M122.3 64L123.4 72M300.9 64L304 66.4M304 66.4L312 71.8M312 71.8L312.3 72M775.1 64L776 69.2M776 69.2L776.6 72M123.4 72L124.3 80M312.3 72L320 76.3M320 76.3L328 79.8M328 79.8L328.7 80M398 80L400 79.8M400 79.8L408 79.6M408 79.6L416 79.9M416 79.9L417.1 80M776.6 72L779.5 80M124.3 80L125.2 88M328.7 80L336 82.2M336 82.2L344 83.7M344 83.7L352 84.3M352 84.3L360 84.3M360 84.3L368 83.7M368 83.7L376 82.7M376 82.7L384 81.6M384 81.6L392 80.5M398 80L392 80.5M417.1 80L424 80.7M424 80.7L432 81.9M432 81.9L440 83.2M440 83.2L448 84.4M448 84.4L456 85.6M456 85.6L464 86.9M464 86.9L469.5 88M779.5 80L783.9 88M125.2 88L126 96M469.5 88L472 88.6M472 88.6L480 91.1M480 91.1L488 95M488 95L489.5 96M783.9 88L784 88.1M784 88.1L792 96M792 96L792.1 96M126 96L126.8 104M489.5 96L496 101.8M496 101.8L497.8 104M792.1 96L800 100.3M800 100.3L808 103.2M808 103.2L811.9 104M126.8 104L127.8 112M497.8 104L502.5 112M811.9 104L816 104.7M816 104.7L824 105.7M824 105.7L832 107M832 107L840 109.4M840 109.4L845.2 112M127.8 112L128 113.4M128 113.4L128.9 120M502.5 112L504 116.1M504 116.1L505.2 120M845.2 112L848 113.2M848 113.2L856 118.4M856 118.4L857.8 120M128.9 120L130.3 128M505.2 120L506.4 128M857.8 120L864 124.7M864 124.7L867.4 128M130.3 128L132.1 136M506.4 128L506.4 136M867.4 128L872 131.9M872 131.9L876.2 136M132.1 136L134.5 144M506.4 136L505.3 144M876.2 136L880 139.3M880 139.3L884.9 144M134.5 144L136 148.1M136 148.1L137.6 152M502.9 152L504 148.4M505.3 144L504 148.4M884.9 144L888 146.7M888 146.7L894 152M137.6 152L141.9 160M502.9 152L499 160M894 152L896 153.6M896 153.6L903.9 160M141.9 160L144 163.1M144 163.1L147.8 168M493.6 168L496 164.5M499 160L496 164.5M903.9 160L904 160.1M904 160.1L912 166M912 166L914.9 168M147.8 168L152 172.6M152 172.6L155.5 176M486.7 176L488 174.5M493.6 168L488 174.5M914.9 168L920 171.4M920 171.4L927.5 176M155.5 176L160 179.9M160 179.9L164.9 184M478.6 184L480 182.6M486.7 176L480 182.6M927.5 176L928 176.3M928 176.3L936 181M936 181L941.3 184M164.9 184L168 186.5M168 186.5L174.6 192M470.1 192L472 190.1M478.6 184L472 190.1M941.3 184L944 185.6M944 185.6L952 190.2M952 190.2L955.1 192M174.6 192L176 193.2M176 193.2L182.9 200M461.6 200L464 197.6M470.1 192L464 197.6M955.1 192L960 195.1M960 195.1L967.4 200M182.9 200L184 201.2M184 201.2L189.2 208M453.6 208L456 205.4M461.6 200L456 205.4M967.4 200L968 200.5M968 200.5L976 206.9M976 206.9L977.2 208M189.2 208L192 212.7M192 212.7L193.7 216M446.1 216L448 213.8M453.6 208L448 213.8M977.2 208L984 215.1M984 215.1L984.8 216M193.7 216L196.4 224M439.1 224L440 223M446.1 216L440 223M984.8 216L990.4 224M196.4 224L197.9 232M439.1 224L432.6 232M990.4 224L992 227M992 227L994.4 232M197.9 232L198.2 240M426.4 240L432 232.8M432.6 232L432 232.8M994.4 232L997.2 240M198.2 240L197.8 248M420.4 248L424 243.2M426.4 240L424 243.2M997.2 240L999 248M197.8 248L196.9 256M414.4 256L416 253.9M420.4 248L416 253.9M999 248L1000 254.8M1000 254.8L1000.2 256M196.9 256L195.9 264M414.4 256L408.5 264M1000.2 256L1000.9 264M195.9 264L195.2 272M402.8 272L408 264.7M408.5 264L408 264.7M1000.9 264L1001 272M195.2 272L195 280M397.5 280L400 276.2M402.8 272L400 276.2M1001 272L1000.1 280M195 280L195.4 288M397.5 280L392.7 288M997.8 288L1000 280.3M1000.1 280L1000 280.3M1199.5 288L1200 287.7M195.4 288L196.6 296M388.3 296L392 289.3M392.7 288L392 289.3M997.8 288L993.9 296M1183.2 296L1184 295.6M1184 295.6L1192 291.5M1199.5 288L1192 291.5M196.6 296L198.4 304M388.3 296L384.3 304M987.7 304L992 298.8M993.9 296L992 298.8M1168.5 304L1176 299.8M1183.2 296L1176 299.8M198.4 304L200 308.8M200 308.8L201 312M380.5 312L384 304.6M384.3 304L384 304.6M977.6 312L984 307.4M987.7 304L984 307.4M1154.7 312L1160 308.9M1160 308.9L1168 304.3M1168.5 304L1168 304.3M201 312L204.2 320M380.5 312L376.9 320M960 320L968 316.9M968 316.9L976 313M977.6 312L976 313M1141.2 320L1144 318.3M1144 318.3L1152 313.6M1154.7 312L1152 313.6M204.2 320L208 327.9M208 327.9L208 328M373.3 328L376 322M376.9 320L376 322M936.1 328L944 325.2M944 325.2L952 322.6M952 322.6L960 320M960 320L960 320M1128.1 328L1136 323.2M1141.2 320L1136 323.2M208 328L212.4 336M373.3 328L369.6 336M919.9 336L920 335.9M920 335.9L928 331.4M928 331.4L936 328M936.1 328L936 328M1115.2 336L1120 333M1120 333L1128 328.1M1128.1 328L1128 328.1M212.4 336L216 342.3M216 342.3L217 344M365.8 344L368 339.5M369.6 336L368 339.5M910.3 344L912 342.3M919.9 336L912 342.3M1103 344L1104 343.3M1104 343.3L1112 338.1M1115.2 336L1112 338.1M217 344L222 352M365.8 344L361.6 352M903.7 352L904 351.6M910.3 344L904 351.6M1091.4 352L1096 348.8M1103 344L1096 348.8M222 352L224 355.2M224 355.2L227.2 360M357 360L360 355M361.6 352L360 355M903.7 352L898.9 360M1080.8 360L1088 354.6M1091.4 352L1088 354.6M227.2 360L232 367.7M232 367.7L232.2 368M352 368L352 368M357 360L352 368M894.8 368L896 365.4M898.9 360L896 365.4M1071 368L1072 367.2M1072 367.2L1080 360.7M1080.8 360L1080 360.7M232.2 368L236.9 376M352 368L346.4 376M894.8 368L891.3 376M1061.8 376L1064 374.1M1071 368L1064 374.1M236.9 376L240 382.4M240 382.4L240.9 384M340.5 384L344 379.5M346.4 376L344 379.5M887.9 384L888 383.6M891.3 376L888 383.6M1053.3 384L1056 381.5M1061.8 376L1056 381.5M240.9 384L243.9 392M334.6 392L336 390.3M340.5 384L336 390.3M887.9 384L884.5 392M1045.4 392L1048 389.4M1053.3 384L1048 389.4M243.9 392L245.2 400M334.6 392L329.5 400M884.5 392L880.7 400M1038.2 400L1040 398.1M1045.4 392L1040 398.1M245.2 400L244.5 408M325.6 408L328 403.2M329.5 400L328 403.2M876.6 408L880 401.3M880.7 400L880 401.3M1031.9 408L1032 407.9M1038.2 400L1032 407.9M244.5 408L241.6 416M325.6 408L323.7 416M871.9 416L872 415.8M876.6 408L872 415.8M1031.9 408L1026.5 416M236.7 424L240 418.4M241.6 416L240 418.4M323.7 416L323.6 424M871.9 416L866.5 424M1022.3 424L1024 420.7M1026.5 416L1024 420.7M230.2 432L232 429.7M236.7 424L232 429.7M323.6 424L324.9 432M860.3 432L864 427.3M866.5 424L864 427.3M1022.3 424L1019.1 432M222.4 440L224 438.3M230.2 432L224 438.3M324.9 432L327.1 440M853.3 440L856 437M860.3 432L856 437M1019.1 432L1017 440M214.2 448L216 446.1M222.4 440L216 446.1M327.1 440L328 442.4M328 442.4L329.7 448M845.5 448L848 445.5M853.3 440L848 445.5M1015.6 448L1016 445.6M1017 440L1016 445.6M206 456L208 453.9M214.2 448L208 453.9M329.7 448L332.4 456M837.1 456L840 453.3M845.5 448L840 453.3M1015.6 448L1014.8 456M198.5 464L200 462.3M206 456L200 462.3M332.4 456L335.1 464M828.7 464L832 460.9M837.1 456L832 460.9M1014.8 456L1014.1 464M191.7 472L192 471.7M198.5 464L192 471.7M335.1 464L336 466.7M336 466.7L337.7 472M820.6 472L824 468.6M828.7 464L824 468.6M1014.1 464L1013.2 472M191.7 472L185.7 480M337.7 472L340.5 480M813.2 480L816 477M820.6 472L816 477M1013.2 472L1012 480M180.1 488L184 482.3M185.7 480L184 482.3M340.5 480L343.6 488M806.5 488L808 486.3M813.2 480L808 486.3M1012 480L1010.6 488M174.9 496L176 494.2M180.1 488L176 494.2M343.6 488L344 489M344 489L347.2 496M806.5 488L800.7 496M1010.6 488L1008.9 496M174.9 496L169.8 504M347.2 496L351.5 504M795.7 504L800 497.3M800.7 496L800 497.3M1007.3 504L1008 500.5M1008.9 496L1008 500.5M1197.7 504L1200 502.5M164.6 512L168 506.7M169.8 504L168 506.7M351.5 504L352 504.8M352 504.8L357 512M791.7 512L792 511.5M795.7 504L792 511.5M1007.3 504L1006 512M1185.3 512L1192 507.6M1197.7 504L1192 507.6M159 520L160 518.6M164.6 512L160 518.6M357 512L360 515.5M360 515.5L364.3 520M791.7 512L788.4 520M1006 512L1005.3 520M1174.1 520L1176 518.5M1176 518.5L1184 512.9M1185.3 512L1184 512.9M159 520L152.8 528M364.3 520L368 523.2M368 523.2L374.6 528M788.4 520L786 528M1005.3 520L1005.4 528M1163.9 528L1168 524.7M1174.1 520L1168 524.7M145.7 536L152 529M152.8 528L152 529M374.6 528L376 528.9M376 528.9L384 533.4M384 533.4L389.3 536M786 528L784.2 536M1005.4 528L1006.6 536M1154.5 536L1160 531.2M1163.9 528L1160 531.2M137.3 544L144 537.7M145.7 536L144 537.7M389.3 536L392 537.3M392 537.3L400 540.8M400 540.8L407.1 544M782.6 544L784 537.3M784.2 536L784 537.3M1006.6 536L1008 540.6M1008 540.6L1009.2 544M1145.7 544L1152 538.2M1154.5 536L1152 538.2M127.5 552L128 551.6M128 551.6L136 545.1M137.3 544L136 545.1M407.1 544L408 544.4M408 544.4L416 548.2M416 548.2L423.1 552M782.6 544L781.1 552M1009.2 544L1013.4 552M1137.2 552L1144 545.6M1145.7 544L1144 545.6M116.6 560L120 557.5M127.5 552L120 557.5M423.1 552L424 552.5M424 552.5L432 557.6M432 557.6L435.2 560M781.1 552L779.3 560M1013.4 552L1016 555.5M1016 555.5L1019.4 560M1128.6 560L1136 553.1M1137.2 552L1136 553.1M104.9 568L112 563.1M116.6 560L112 563.1M435.2 560L440 563.9M440 563.9L444.1 568M779.3 560L777.1 568M1019.4 560L1024 564.7M1024 564.7L1027.3 568M1119.3 568L1120 567.5M1120 567.5L1128 560.5M1128.6 560L1128 560.5M93.2 576L96 574M96 574L104 568.6M104.9 568L104 568.6M444.1 568L448 572.3M448 572.3L450.9 576M773.6 576L776 570.8M777.1 568L776 570.8M1027.3 568L1032 571.9M1032 571.9L1037.4 576M1108.3 576L1112 573.6M1119.3 568L1112 573.6M81.8 584L88 579.6M93.2 576L88 579.6M450.9 576L456 583.7M456 583.7L456.2 584M773.6 576L768.8 584M1037.4 576L1040 577.7M1040 577.7L1048 582M1048 582L1052.9 584M1092.6 584L1096 582.7M1096 582.7L1104 578.7M1108.3 576L1104 578.7M71 592L72 591.3M72 591.3L80 585.3M81.8 584L80 585.3M456.2 584L460.3 592M761.5 592L768 585M768.8 584L768 585M1052.9 584L1056 585.1M1056 585.1L1064 587M1064 587L1072 587.7M1072 587.7L1080 587.2M1080 587.2L1088 585.6M1092.6 584L1088 585.6M60.7 600L64 597.5M71 592L64 597.5M460.3 592L463.8 600M749.9 600L752 598.8M752 598.8L760 593.2M761.5 592L760 593.2M50.8 608L56 603.9M60.7 600L56 603.9M463.8 600L464 600.6M464 600.6L466.5 608M730.2 608L736 606M736 606L744 602.8M749.9 600L744 602.8M41.4 616L48 610.5M50.8 608L48 610.5M466.5 608L468.9 616M703.8 616L704 615.9M704 615.9L712 613.3M712 613.3L720 610.9M720 610.9L728 608.7M730.2 608L728 608.7M32.6 624L40 617.3M41.4 616L40 617.3M468.9 616L470.8 624M683.9 624L688 622M688 622L696 618.7M703.8 616L696 618.7M24.5 632L32 624.6M32.6 624L32 624.6M470.8 624L472 629.8M472 629.8L472.4 632M668.6 632L672 629.9M672 629.9L680 625.7M683.9 624L680 625.7" stroke="rgba(255,255,255,0.62)" stroke-width="1.6"/><path d="M255.8 0L256 0.2M256 0.2L264 6.5M264 6.5L265.6 8M738.5 0L737.7 8M265.6 8L272 13.6M272 13.6L274.4 16M737.7 8L737.3 16M274.4 16L280 21.1M280 21.1L283 24M737.3 16L737.6 24M283 24L288 28.5M288 28.5L291.8 32M737.6 24L738.5 32M291.8 32L296 35.6M296 35.6L301.3 40M738.5 32L740 40M301.3 40L304 42.1M304 42.1L312 47.8M312 47.8L312.3 48M740 40L741.9 48M39.5 56L40 55.8M40 55.8L48 52.8M48 52.8L56 50.7M56 50.7L64 49.9M64 49.9L72 50.6M72 50.6L80 53.2M80 53.2L84.3 56M312.3 48L320 52.6M320 52.6L327 56M741.9 48L744 56M22.3 64L24 63.2M24 63.2L32 59.3M39.5 56L32 59.3M84.3 56L88 58.6M88 58.6L92.9 64M327 56L328 56.5M328 56.5L336 59.3M336 59.3L344 61.1M344 61.1L352 62M352 62L360 62M360 62L368 61.4M368 61.4L376 60.2M376 60.2L384 58.8M384 58.8L392 57.6M392 57.6L400 56.6M400 56.6L408 56.2M408 56.2L416 56.4M416 56.4L424 57.1M424 57.1L432 58M432 58L440 58.9M440 58.9L448 59.6M448 59.6L456 59.9M456 59.9L464 59.9M464 59.9L472 59.8M472 59.8L480 59.8M480 59.8L488 60M488 60L496 61.1M496 61.1L504 63.8M504 63.8L504.4 64M744 56L744 56.1M744 56.1L746.1 64M3.9 72L8 70.5M8 70.5L16 67M22.3 64L16 67M92.9 64L96 68.2M96 68.2L98.1 72M504.4 64L512 69.5M512 69.5L514.1 72M746.1 64L748.3 72M3.9 72L0 73.5M98.1 72L101.6 80M514.1 72L519.3 80M748.3 72L750.9 80M101.6 80L104 87.2M104 87.2L104.2 88M519.3 80L520 81.4M520 81.4L522.6 88M750.9 80L752 82.8M752 82.8L754.3 88M104.2 88L106 96M522.6 88L525.1 96M754.3 88L758.6 96M106 96L107.3 104M525.1 96L527 104M758.6 96L760 98.1M760 98.1L764.4 104M107.3 104L108.2 112M527 104L528 109.7M528 109.7L528.3 112M764.4 104L768 108M768 108L772.2 112M108.2 112L109 120M528.3 112L529.1 120M772.2 112L776 115.2M776 115.2L782.8 120M109 120L109.5 128M529.1 120L529.4 128M782.8 120L784 120.7M784 120.7L792 124.9M792 124.9L799 128M109.5 128L110 136M529.4 128L529.2 136M799 128L800 128.4M800 128.4L808 131M808 131L816 133.3M816 133.3L824 135.6M824 135.6L825.3 136M110 136L110.4 144M529.2 136L528.3 144M825.3 136L832 138.1M832 138.1L840 141.3M840 141.3L845.4 144M110.4 144L110.8 152M526.5 152L528 145.4M528.3 144L528 145.4M845.4 144L848 145.3M848 145.3L856 150.1M856 150.1L858.7 152M110.8 152L111.5 160M526.5 152L523.8 160M858.7 152L864 155.7M864 155.7L869.7 160M111.5 160L112 163.7M112 163.7L112.6 168M519.8 168L520 167.7M523.8 160L520 167.7M869.7 160L872 161.8M872 161.8L879.9 168M112.6 168L114.5 176M519.8 168L514.2 176M879.9 168L880 168.1M880 168.1L888 174.4M888 174.4L890.1 176M114.5 176L117.6 184M506.8 184L512 178.5M514.2 176L512 178.5M890.1 176L896 180.5M896 180.5L901.1 184M117.6 184L120 188.1M120 188.1L122.7 192M497.6 192L504 186.5M506.8 184L504 186.5M901.1 184L904 186.1M904 186.1L912 191.3M912 191.3L913.1 192M122.7 192L128 197.6M128 197.6L130.8 200M487.4 200L488 199.5M488 199.5L496 193.2M497.6 192L496 193.2M913.1 192L920 196.4M920 196.4L926.2 200M130.8 200L136 204.1M136 204.1L141.4 208M477.3 208L480 205.7M487.4 200L480 205.7M926.2 200L928 201.2M928 201.2L936 206.2M936 206.2L938.9 208M141.4 208L144 209.8M144 209.8L151.9 216M467.9 216L472 212.3M477.3 208L472 212.3M938.9 208L944 211.7M944 211.7L949.8 216M151.9 216L152 216.1M152 216.1L159.4 224M459.5 224L464 219.5M467.9 216L464 219.5M949.8 216L952 218.1M952 218.1L957.9 224M159.4 224L160 224.9M160 224.9L163.9 232M452.1 232L456 227.6M459.5 224L456 227.6M957.9 224L960 226.9M960 226.9L963.3 232M163.9 232L166.4 240M445.5 240L448 236.8M452.1 232L448 236.8M963.3 232L966.7 240M166.4 240L167.6 248M439.4 248L440 247.2M445.5 240L440 247.2M966.7 240L968 246.3M968 246.3L968.3 248M167.6 248L167.8 256M439.4 248L433.6 256M968.3 248L968.6 256M167.8 256L167.8 264M427.8 264L432 258.2M433.6 256L432 258.2M968 264L968 263.8M968.6 256L968 263.8M167.8 264L168 270M168 270L168 272M422.1 272L424 269.3M427.8 264L424 269.3M968 264L965.7 272M168 272L168.6 280M422.1 272L416.6 280M965.7 272L960.8 280M168.6 280L169.8 288M411.7 288L416 281M416.6 280L416 281M950.7 288L952 287.2M952 287.2L960 280.8M960.8 280L960 280.8M169.8 288L171.5 296M407.3 296L408 294.8M411.7 288L408 294.8M930.8 296L936 294.2M936 294.2L944 291.1M950.7 288L944 291.1M171.5 296L173.9 304M407.3 296L403.5 304M909.7 304L912 302.8M912 302.8L920 299.5M920 299.5L928 296.9M930.8 296L928 296.9M173.9 304L176 309.6M176 309.6L176.9 312M403.5 304L400.1 312M897.6 312L904 307.1M909.7 304L904 307.1M1182.1 312L1184 311.1M1184 311.1L1192 307.5M1192 307.5L1200 304.3M176.9 312L180.3 320M397.2 320L400 312.4M400.1 312L400 312.4M890.3 320L896 313.3M897.6 312L896 313.3M1166.5 320L1168 319.2M1168 319.2L1176 315M1182.1 312L1176 315M180.3 320L184 327.6M184 327.6L184.2 328M397.2 320L394.6 328M885.3 328L888 323.2M890.3 320L888 323.2M1152.5 328L1160 323.6M1166.5 320L1160 323.6M184.2 328L188.3 336M394.6 328L392.3 336M885.3 328L881.6 336M1139.5 336L1144 333.2M1144 333.2L1152 328.3M1152.5 328L1152 328.3M188.3 336L192 342.7M192 342.7L192.7 344M390.1 344L392 337M392.3 336L392 337M878.8 344L880 340.2M881.6 336L880 340.2M1127.2 344L1128 343.5M1128 343.5L1136 338.3M1139.5 336L1136 338.3M192.7 344L197.1 352M390.1 344L388 352M878.8 344L876.4 352M1115.8 352L1120 349M1127.2 344L1120 349M197.1 352L200 357.6M200 357.6L201.3 360M388 352L385.9 360M876.4 352L874.3 360M1105.1 360L1112 354.8M1115.8 352L1112 354.8M201.3 360L205.2 368M383.7 368L384 366.9M385.9 360L384 366.9M874.3 360L872.1 368M1095.3 368L1096 367.4M1096 367.4L1104 360.9M1105.1 360L1104 360.9M205.2 368L208 374.7M208 374.7L208.6 376M383.7 368L381.2 376M869.9 376L872 368.4M872.1 368L872 368.4M1086.3 376L1088 374.4M1095.3 368L1088 374.4M208.6 376L211.2 384M381.2 376L378.4 384M869.9 376L867.4 384M1078 384L1080 382.1M1086.3 376L1080 382.1M211.2 384L212.8 392M375.2 392L376 390.1M378.4 384L376 390.1M867.4 384L864.5 392M1070.6 392L1072 390.5M1078 384L1072 390.5M212.8 392L213.2 400M375.2 392L371.8 400M861 400L864 393.2M864.5 392L864 393.2M1063.9 400L1064 399.9M1070.6 392L1064 399.9M213.2 400L212.2 408M371.8 400L368.3 408M861 400L856.9 408M1063.9 400L1057.9 408M212.2 408L209.8 416M365.3 416L368 408.7M368.3 408L368 408.7M852 416L856 409.6M856.9 408L856 409.6M1052.8 416L1056 411M1057.9 408L1056 411M205.9 424L208 419.5M209.8 416L208 419.5M365.3 416L362.9 424M846.1 424L848 421.5M852 416L848 421.5M1052.8 416L1048.6 424M205.9 424L200.9 432M362.9 424L361.2 432M839.2 432L840 431.1M846.1 424L840 431.1M1045.2 432L1048 425.4M1048.6 424L1048 425.4M195 440L200 433.1M200.9 432L200 433.1M361.2 432L360.4 440M831.2 440L832 439.2M839.2 432L832 439.2M1045.2 432L1042.9 440M188.7 448L192 443.7M195 440L192 443.7M360.4 440L360.1 448M822.5 448L824 446.6M831.2 440L824 446.6M1042.9 440L1041.3 448M182.3 456L184 453.8M188.7 448L184 453.8M360.1 448L360.4 456M813.5 456L816 453.8M822.5 448L816 453.8M1041.3 448L1040.4 456M182.3 456L176.2 464M360.4 456L361.2 464M804.3 464L808 460.9M813.5 456L808 460.9M1039.6 464L1040 459.8M1040.4 456L1040 459.8M170.4 472L176 464.3M176.2 464L176 464.3M361.2 464L362.6 472M794.9 472L800 467.8M804.3 464L800 467.8M1039.6 464L1038.6 472M165 480L168 475.5M170.4 472L168 475.5M362.6 472L364.9 480M785.3 480L792 474.6M794.9 472L792 474.6M1038.6 472L1037.5 480M159.7 488L160 487.6M165 480L160 487.6M364.9 480L368 487.8M368 487.8L368.1 488M775.6 488L776 487.7M776 487.7L784 481.2M785.3 480L784 481.2M1037.5 480L1036 488M1192.7 488L1200 482.7M159.7 488L154.5 496M368.1 488L373 496M765.5 496L768 494.3M775.6 488L768 494.3M1036 488L1034.5 496M1181.6 496L1184 494.2M1184 494.2L1192 488.5M1192.7 488L1192 488.5M149.1 504L152 499.8M154.5 496L152 499.8M373 496L376 499.8M376 499.8L379.9 504M755.3 504L760 500.7M765.5 496L760 500.7M1034.5 496L1032.9 504M1170.7 504L1176 500M1181.6 496L1176 500M143.4 512L144 511.2M149.1 504L144 511.2M379.9 504L384 507.6M384 507.6L390 512M745.5 512L752 507.1M755.3 504L752 507.1M1031.6 512L1032 509.5M1032.9 504L1032 509.5M1160.3 512L1168 506M1170.7 504L1168 506M143.4 512L137 520M390 512L392 513.3M392 513.3L400 517.6M400 517.6L405.1 520M736.4 520L744 513.5M745.5 512L744 513.5M1031.6 512L1030.8 520M1150.4 520L1152 518.7M1152 518.7L1160 512.2M1160.3 512L1160 512.2M129.6 528L136 521.1M137 520L136 521.1M405.1 520L408 521.3M408 521.3L416 524.5M416 524.5L423.8 528M728.7 528L736 520.4M736.4 520L736 520.4M1030.8 520L1030.9 528M1141.1 528L1144 525.5M1150.4 520L1144 525.5M121 536L128 529.6M129.6 528L128 529.6M423.8 528L424 528.1M424 528.1L432 531.8M432 531.8L438.9 536M722.7 536L728 528.9M728.7 528L728 528.9M1030.9 528L1032 534.2M1032 534.2L1032.3 536M1131.9 536L1136 532.5M1141.1 528L1136 532.5M111.1 544L112 543.3M112 543.3L120 536.9M121 536L120 536.9M438.9 536L440 536.7M440 536.7L448 542.8M448 542.8L449.3 544M718 544L720 540.5M722.7 536L720 540.5M1032.3 536L1035.3 544M1122.8 544L1128 539.5M1131.9 536L1128 539.5M100 552L104 549.1M111.1 544L104 549.1M449.3 544L456 550.8M456 550.8L457 552M718 544L713.7 552M1035.3 544L1040 551.6M1040 551.6L1040.3 552M1113.1 552L1120 546.4M1122.8 544L1120 546.4M88.2 560L96 554.7M100 552L96 554.7M457 552L462.9 560M709.1 560L712 554.7M713.7 552L712 554.7M1040.3 552L1048 559.7M1048 559.7L1048.4 560M1101.3 560L1104 558.4M1104 558.4L1112 552.9M1113.1 552L1112 552.9M75.8 568L80 565.3M80 565.3L88 560.1M88.2 560L88 560.1M462.9 560L464 561.6M464 561.6L467.8 568M703.5 568L704 567.1M709.1 560L704 567.1M1048.4 560L1056 564.5M1056 564.5L1064 567.5M1064 567.5L1067.4 568M1080.8 568L1088 566.2M1088 566.2L1096 562.9M1101.3 560L1096 562.9M63.4 576L64 575.7M64 575.7L72 570.5M75.8 568L72 570.5M467.8 568L471.8 576M703.5 568L697 576M1067.4 568L1072 568.6M1072 568.6L1080 568.2M1080.8 568L1080 568.2M50.5 584L56 580.6M63.4 576L56 580.6M471.8 576L472 576.4M472 576.4L475.3 584M689.5 584L696 576.9M697 576L696 576.9M36.9 592L40 590.3M40 590.3L48 585.6M50.5 584L48 585.6M475.3 584L478.3 592M681.4 592L688 585.3M689.5 584L688 585.3M22.9 600L24 599.5M24 599.5L32 594.9M36.9 592L32 594.9M478.3 592L480 597.2M480 597.2L480.9 600M672.8 600L680 593.1M681.4 592L680 593.1M0 607.3L8 606.4M8 606.4L16 603.6M22.9 600L16 603.6M480.9 600L483.3 608M663.9 608L664 607.9M664 607.9L672 600.6M672.8 600L672 600.6M483.3 608L485.5 616M654.9 616L656 614.9M663.9 608L656 614.9M485.5 616L487.5 624M645.5 624L648 621.8M654.9 616L648 621.8M487.5 624L488 626M488 626L489.5 632M635.7 632L640 628.5M645.5 624L640 628.5" stroke="rgba(255,255,255,0.26)" stroke-width="0.9"/><path d="M292.8 0L296 4.3M296 4.3L298.7 8M703.7 0L704 2.3M704 2.3L704.6 8M298.7 8L304 13.9M304 13.9L306 16M704.6 8L706.2 16M306 16L312 21.3M312 21.3L315.4 24M516.7 24L520 23.6M520 23.6L528 23.6M528 23.6L530.4 24M706.2 16L708.5 24M315.4 24L320 27.2M320 27.2L328 31.8M328 31.8L328.5 32M478.8 32L480 31.8M480 31.8L488 30M488 30L496 28.1M496 28.1L504 26.2M504 26.2L512 24.6M516.7 24L512 24.6M530.4 24L536 25.5M536 25.5L544 31.6M544 31.6L544.3 32M708.5 24L711.3 32M328.5 32L336 34.9M336 34.9L344 37M344 37L352 38M352 38L360 38.2M360 38.2L368 37.5M368 37.5L376 36.5M376 36.5L384 35.2M384 35.2L392 34.1M392 34.1L400 33.4M400 33.4L408 33.1M408 33.1L416 33.3M416 33.3L424 33.9M424 33.9L432 34.7M432 34.7L440 35.4M440 35.4L448 35.7M448 35.7L456 35.4M456 35.4L464 34.7M464 34.7L472 33.4M478.8 32L472 33.4M544.3 32L547.3 40M711.3 32L712 33.7M712 33.7L714.5 40M547.3 40L548.2 48M714.5 40L717.8 48M548.2 48L548 56M717.8 48L720 53M720 53L721.2 56M548 56L547.6 64M721.2 56L724.4 64M547.6 64L547.4 72M724.4 64L727.4 72M547.4 72L547.3 80M727.4 72L728 73.6M728 73.6L730.5 80M33.4 88L40 85.4M40 85.4L48 83.1M48 83.1L56 82.4M56 82.4L64 83.8M64 83.8L71.9 88M547.3 80L547.5 88M730.5 80L733.9 88M16 96L24 92.5M24 92.5L32 88.6M33.4 88L32 88.6M71.9 88L72 88.1M72 88.1L78.3 96M547.5 88L547.7 96M733.9 88L736 92.3M736 92.3L737.9 96M0 101.5L8 99.2M8 99.2L16 96M16 96L16 96M78.3 96L80 99.3M80 99.3L81.7 104M547.7 96L548 104M737.9 96L742.6 104M81.7 104L83.5 112M548 104L548.3 112M742.6 104L744 106M744 106L748.5 112M83.5 112L84.3 120M548.3 112L548.6 120M748.5 112L752 116M752 116L755.7 120M84.3 120L84.2 128M548.6 120L548.7 128M755.7 120L760 123.9M760 123.9L764.8 128M84.2 128L83.4 136M548.7 128L548.5 136M764.8 128L768 130.4M768 130.4L776 135.9M776 135.9L776.2 136M83.4 136L82 144M548.5 136L548.1 144M776.2 136L784 140.4M784 140.4L790.9 144M82 144L80.3 152M548.1 144L547.2 152M790.9 144L792 144.5M792 144.5L800 148.1M800 148.1L808 151.5M808 151.5L809.4 152M78.1 160L80 153M80.3 152L80 153M547.2 152L545.7 160M809.4 152L816 154.7M816 154.7L824 158.1M824 158.1L828 160M78.1 160L76.1 168M543.4 168L544 166.1M545.7 160L544 166.1M828 160L832 162.1M832 162.1L840 166.8M840 166.8L841.9 168M76.1 168L74.6 176M543.4 168L540 176M841.9 168L848 172.4M848 172.4L852.7 176M74.6 176L73.8 184M535 184L536 182.6M540 176L536 182.6M852.7 176L856 178.9M856 178.9L861.8 184M73.8 184L74 192M535 184L528.1 192M861.8 184L864 186.2M864 186.2L870 192M74 192L75.5 200M518.8 200L520 199.1M520 199.1L528 192.1M528.1 192L528 192.1M870 192L872 194.2M872 194.2L877.6 200M75.5 200L78.4 208M507.5 208L512 204.9M518.8 200L512 204.9M877.6 200L880 203M880 203L884.6 208M78.4 208L80 211.2M80 211.2L82.9 216M495.4 216L496 215.6M496 215.6L504 210.3M507.5 208L504 210.3M884.6 208L888 212.7M888 212.7L890.8 216M82.9 216L88 222.8M88 222.8L89 224M484.3 224L488 221.2M495.4 216L488 221.2M890.8 216L895.8 224M89 224L96 230.9M96 230.9L97.2 232M474.7 232L480 227.4M484.3 224L480 227.4M895.8 224L896 224.6M896 224.6L899 232M97.2 232L104 237.8M104 237.8L106.8 240M466.4 240L472 234.4M474.7 232L472 234.4M899 232L899.4 240M106.8 240L112 244.5M112 244.5L115.9 248M459.3 248L464 242.6M466.4 240L464 242.6M899.4 240L896.6 248M115.9 248L120 252.3M120 252.3L123.2 256M452.9 256L456 252M459.3 248L456 252M891.7 256L896 248.9M896.6 248L896 248.9M123.2 256L128 263.3M128 263.3L128.4 264M446.8 264L448 262.4M452.9 256L448 262.4M885.5 264L888 260.4M891.7 256L888 260.4M128.4 264L132.4 272M446.8 264L441.2 272M878.9 272L880 270.4M885.5 264L880 270.4M132.4 272L135.7 280M436 280L440 273.8M441.2 272L440 273.8M878.9 272L873 280M135.7 280L136 280.6M136 280.6L138.9 288M431.5 288L432 287.1M436 280L432 287.1M868.1 288L872 281.4M873 280L872 281.4M138.9 288L142.1 296M431.5 288L427.5 296M863.9 296L864 295.8M868.1 288L864 295.8M142.1 296L144 300.3M144 300.3L145.6 304M427.5 296L424.3 304M863.9 296L860.9 304M145.6 304L149.3 312M421.6 312L424 304.8M424.3 304L424 304.8M860.9 304L858.6 312M149.3 312L152 317.1M152 317.1L153.5 320M421.6 312L419.6 320M858.6 312L856.8 320M153.5 320L157.9 328M419.6 320L418.3 328M855.6 328L856 325.1M856.8 320L856 325.1M1182.1 328L1184 327.2M1184 327.2L1192 324.1M1192 324.1L1200 321.5M157.9 328L160 331.5M160 331.5L162.6 336M418.3 328L417.7 336M855.6 328L854.6 336M1165.6 336L1168 334.7M1168 334.7L1176 330.8M1182.1 328L1176 330.8M162.6 336L167.4 344M417.7 336L417.8 344M854.6 336L853.8 344M1151.6 344L1152 343.8M1152 343.8L1160 339.1M1165.6 336L1160 339.1M167.4 344L168 345.1M168 345.1L172 352M417.8 344L418.6 352M853.8 344L853 352M1139.2 352L1144 348.9M1151.6 344L1144 348.9M172 352L176 359.3M176 359.3L176.4 360M418.6 352L420.3 360M853 352L852 360M1127.8 360L1128 359.8M1128 359.8L1136 354.2M1139.2 352L1136 354.2M176.4 360L180.2 368M420.3 360L422.8 368M852 360L850.8 368M1117.4 368L1120 365.9M1127.8 360L1120 365.9M180.2 368L183.5 376M422.8 368L424 371M424 371L426.3 376M850.8 368L849.2 376M1107.9 376L1112 372.5M1117.4 368L1112 372.5M183.5 376L184 377.7M184 377.7L185.8 384M426.3 376L430.6 384M847 384L848 380.3M849.2 376L848 380.3M1099.3 384L1104 379.6M1107.9 376L1104 379.6M185.8 384L187.2 392M430.6 384L432 386.3M432 386.3L435.4 392M847 384L844.1 392M1091.7 392L1096 387.4M1099.3 384L1096 387.4M187.2 392L187.5 400M435.4 392L440 399.7M440 399.7L440.2 400M844.1 392L840.5 400M1084.9 400L1088 396.3M1091.7 392L1088 396.3M187.5 400L186.5 408M440.2 400L443.6 408M835.9 408L840 400.9M840.5 400L840 400.9M1079 408L1080 406.6M1084.9 400L1080 406.6M186.5 408L184.2 416M443.6 408L445.8 416M830.2 416L832 413.6M835.9 408L832 413.6M1079 408L1074 416M0 419.6L8 423.3M8 423.3L9 424M180.8 424L184 416.6M184.2 416L184 416.6M445.8 416L446.3 424M823.5 424L824 423.4M830.2 416L824 423.4M1070 424L1072 420M1074 416L1072 420M9 424L16 430.7M16 430.7L17.2 432M180.8 424L176.3 432M446.3 424L444.7 432M815.8 432L816 431.8M823.5 424L816 431.8M1070 424L1067 432M17.2 432L21.5 440M171 440L176 432.5M176.3 432L176 432.5M444.7 432L440.8 440M807.2 440L808 439.3M815.8 432L808 439.3M1067 432L1064.9 440M21.5 440L23.9 448M165.1 448L168 444.1M171 440L168 444.1M433.1 448L440 441.3M440.8 440L440 441.3M797.2 448L800 445.9M807.2 440L800 445.9M1063.6 448L1064 445.4M1064.9 440L1064 445.4M23.9 448L24 448.8M24 448.8L25.2 456M159.1 456L160 454.9M165.1 448L160 454.9M421.8 456L424 454.6M424 454.6L432 449.1M433.1 448L432 449.1M785.8 456L792 451.9M797.2 448L792 451.9M1063.6 448L1062.9 456M25.2 456L26 464M159.1 456L153.2 464M413.7 464L416 461.2M421.8 456L416 461.2M771.8 464L776 461.9M776 461.9L784 457.2M785.8 456L784 457.2M1062.9 456L1062.4 464M1193.9 464L1200 458M26 464L25.7 472M147.4 472L152 465.7M153.2 464L152 465.7M413.7 464L411.7 472M753.4 472L760 469.6M760 469.6L768 466M771.8 464L768 466M1062.4 464L1062 472M1185.1 472L1192 465.7M1193.9 464L1192 465.7M25.7 472L24.1 480M141.8 480L144 477M147.4 472L144 477M411.7 472L415.4 480M726.2 480L728 479.6M728 479.6L736 477.6M736 477.6L744 475.3M744 475.3L752 472.6M753.4 472L752 472.6M1062 472L1061.4 480M1175.7 480L1176 479.8M1176 479.8L1184 472.9M1185.1 472L1184 472.9M21.3 488L24 480.4M24.1 480L24 480.4M141.8 480L136.2 488M415.4 480L416 480.5M416 480.5L424 486.2M424 486.2L426.2 488M700.3 488L704 486.6M704 486.6L712 484M712 484L720 481.7M726.2 480L720 481.7M1061.4 480L1060.8 488M1165.8 488L1168 486.2M1175.7 480L1168 486.2M21.3 488L17.3 496M130.2 496L136 488.3M136.2 488L136 488.3M426.2 488L432 491M432 491L439 496M685.6 496L688 494.4M688 494.4L696 490M700.3 488L696 490M1060.8 488L1060.1 496M1155.4 496L1160 492.5M1165.8 488L1160 492.5M12.5 504L16 498.1M17.3 496L16 498.1M123.7 504L128 498.9M130.2 496L128 498.9M439 496L440 496.6M440 496.6L448 502.9M448 502.9L449 504M676.5 504L680 500.6M685.6 496L680 500.6M1060.1 496L1059.4 504M1144.9 504L1152 498.6M1155.4 496L1152 498.6M7.4 512L8 511M12.5 504L8 511M116.5 512L120 508.3M123.7 504L120 508.3M449 504L456 510.6M456 510.6L457.1 512M670.4 512L672 509.6M676.5 504L672 509.6M1059.4 504L1059.2 512M1134.3 512L1136 510.8M1136 510.8L1144 504.7M1144.9 504L1144 504.7M7.4 512L3.1 520M108 520L112 516.4M116.5 512L112 516.4M457.1 512L463.8 520M670.4 512L666.3 520M1059.2 512L1059.6 520M1123.6 520L1128 516.8M1134.3 512L1128 516.8M3.1 520L0 526.9M98 528L104 523.4M108 520L104 523.4M463.8 520L464 520.3M464 520.3L469.4 528M663.4 528L664 526.1M666.3 520L664 526.1M1059.6 520L1061.6 528M1112.7 528L1120 522.8M1123.6 520L1120 522.8M86.3 536L88 534.9M88 534.9L96 529.5M98 528L96 529.5M469.4 528L472 532M472 532L474.2 536M663.4 528L661.4 536M1061.6 528L1064 532.5M1064 532.5L1067.1 536M1099.2 536L1104 533.5M1104 533.5L1112 528.5M1112.7 528L1112 528.5M72.9 544L80 539.8M86.3 536L80 539.8M474.2 536L478.5 544M661.4 536L659.9 544M1067.1 536L1072 539.3M1072 539.3L1080 541.2M1080 541.2L1088 540.3M1088 540.3L1096 537.7M1099.2 536L1096 537.7M57.3 552L64 548.6M64 548.6L72 544.5M72.9 544L72 544.5M478.5 544L480 547.1M480 547.1L482.2 552M659.9 544L658.4 552M0 556.9L2.1 560M37.9 560L40 559.3M40 559.3L48 556M48 556L56 552.6M57.3 552L56 552.6M482.2 552L485.5 560M658.4 552L656.7 560M2.1 560L8 564.5M8 564.5L16 565.8M16 565.8L24 564.4M24 564.4L32 562M37.9 560L32 562M485.5 560L488 566.9M488 566.9L488.4 568M654.7 568L656 562.8M656.7 560L656 562.8M488.4 568L491.1 576M654.7 568L652.1 576M491.1 576L493.6 584M652.1 576L648.5 584M493.6 584L496 592M644.2 592L648 584.9M648.5 584L648 584.9M496 592L496 592M496 592L498.4 600M638.7 600L640 598.1M644.2 592L640 598.1M498.4 600L500.9 608M638.7 600L632.3 608M500.9 608L503.3 616M624.5 616L632 608.3M632.3 608L632 608.3M503.3 616L504 618M504 618L506.2 624M615.1 624L616 623.3M616 623.3L624 616.5M624.5 616L624 616.5M506.2 624L509.4 632M604 632L608 629.2M615.1 624L608 629.2" stroke="rgba(255,255,255,0.26)" stroke-width="0.9"/><path d="M338.5 0L344 4M344 4L352 7.7M352 7.7L353.2 8M482.6 8L488 6.2M488 6.2L496 3.1M503.5 0L496 3.1M607.1 0L604.9 8M654.6 0L656 1.7M656 1.7L659.7 8M353.2 8L360 9.1M360 9.1L368 9.5M368 9.5L376 9.3M376 9.3L384 8.9M384 8.9L392 8.6M392 8.6L400 8.7M400 8.7L408 9.2M408 9.2L416 10.1M416 10.1L424 11.3M424 11.3L432 12.5M432 12.5L440 13.5M440 13.5L448 13.9M448 13.9L456 13.6M456 13.6L464 12.7M464 12.7L472 11M472 11L480 8.9M482.6 8L480 8.9M604.9 8L600.9 16M659.7 8L664 12.8M664 12.8L666.1 16M596.6 24L600 17.3M600.9 16L600 17.3M666.1 16L672 22.5M672 22.5L673 24M591.8 32L592 31.5M596.6 24L592 31.5M673 24L679.9 32M591.8 32L587.2 40M679.9 32L680 32.1M680 32.1L686.3 40M582.7 48L584 45.4M587.2 40L584 45.4M686.3 40L688 42M688 42L692.3 48M582.7 48L578.7 56M692.3 48L696 53M696 53L697.9 56M575.1 64L576 61.8M578.7 56L576 61.8M697.9 56L702.8 64M575.1 64L572.4 72M702.8 64L704 66.1M704 66.1L707 72M572.4 72L570.3 80M707 72L711.1 80M570.3 80L568.8 88M711.1 80L712 81.8M712 81.8L715 88M567.8 96L568 94.6M568.8 88L568 94.6M715 88L719.2 96M567.8 96L567.3 104M719.2 96L720 97.5M720 97.5L723.7 104M567.3 104L567 112M723.7 104L728 110.6M728 110.6L728.9 112M567 112L567 120M728.9 112L735 120M567 120L567.1 128M735 120L736 121.1M736 121.1L742.4 128M567.1 128L567.2 136M742.4 128L744 129.6M744 129.6L751.2 136M0 138.8L8 141.6M8 141.6L14.8 144M567.2 136L567.2 144M751.2 136L752 136.6M752 136.6L760 142.7M760 142.7L761.8 144M14.8 144L16 144.6M16 144.6L24 149.3M24 149.3L26.7 152M567.2 144L567.1 152M761.8 144L768 148.1M768 148.1L774.2 152M26.7 152L31.3 160M567.1 152L566.7 160M774.2 152L776 153.1M776 153.1L784 157.7M784 157.7L788.2 160M31.3 160L32 161.7M32 161.7L33.8 168M566.7 160L565.8 168M788.2 160L792 162.1M792 162.1L800 166.5M800 166.5L802.9 168M33.8 168L35.8 176M565.8 168L564.3 176M802.9 168L808 170.9M808 170.9L816 175.6M816 175.6L816.7 176M35.8 176L37.9 184M564.3 176L561.8 184M816.7 176L824 181M824 181L827.9 184M37.9 184L40 191M40 191L40.3 192M558 192L560 188.1M561.8 184L560 188.1M827.9 184L832 187.7M832 187.7L836.4 192M40.3 192L43 200M558 192L552.5 200M836.4 192L840 196.4M840 196.4L843 200M43 200L46.3 208M544.6 208L552 200.6M552.5 200L552 200.6M843 200L847.9 208M46.3 208L48 211.3M48 211.3L50.3 216M533.7 216L536 214.5M536 214.5L544 208.5M544.6 208L544 208.5M847.9 208L848 208.3M848 208.3L851.5 216M50.3 216L55 224M520.2 224L528 219.5M533.7 216L528 219.5M851.5 216L853.7 224M55 224L56 225.4M56 225.4L60.6 232M506.3 232L512 228.6M512 228.6L520 224.1M520.2 224L520 224.1M853.7 224L854.5 232M60.6 232L64 236.3M64 236.3L67.1 240M494.2 240L496 238.7M496 238.7L504 233.4M506.3 232L504 233.4M854.5 232L854.1 240M67.1 240L72 245.6M72 245.6L74.3 248M484.2 248L488 244.7M494.2 240L488 244.7M854.1 240L852.4 248M74.3 248L80 254.3M80 254.3L81.7 256M475.7 256L480 251.7M484.2 248L480 251.7M852.4 248L849.8 256M81.7 256L88 263.3M88 263.3L88.6 264M468.2 264L472 259.8M475.7 256L472 259.8M846.7 264L848 260.5M849.8 256L848 260.5M88.6 264L94.8 272M461.6 272L464 268.9M468.2 264L464 268.9M846.7 264L843.5 272M94.8 272L96 273.9M96 273.9L100.1 280M455.9 280L456 279.8M461.6 272L456 279.8M843.5 272L840.3 280M100.1 280L104 286.9M104 286.9L104.6 288M455.9 280L451.3 288M837.7 288L840 280.9M840.3 280L840 280.9M104.6 288L108.8 296M447.6 296L448 295.2M451.3 288L448 295.2M837.7 288L835.4 296M108.8 296L112 302.7M112 302.7L112.6 304M447.6 296L445 304M835.4 296L833.6 304M112.6 304L116.5 312M445 304L443.3 312M833.6 304L832.3 312M116.5 312L120 318.9M120 318.9L120.6 320M443.3 312L442.5 320M831.4 320L832 314.5M832.3 312L832 314.5M120.6 320L124.9 328M442.5 320L442.7 328M831.4 320L830.8 328M124.9 328L128 333.1M128 333.1L129.7 336M442.7 328L443.9 336M830.8 328L830.5 336M129.7 336L134.9 344M443.9 336L446.2 344M830.5 336L830.2 344M1191.2 344L1192 343.8M1192 343.8L1200 342.2M134.9 344L136 345.6M136 345.6L140.2 352M446.2 344L448 348.3M448 348.3L449.5 352M830.2 344L829.8 352M1170.2 352L1176 349.4M1176 349.4L1184 346.3M1191.2 344L1184 346.3M140.2 352L144 357.5M144 357.5L145.6 360M449.5 352L453.6 360M829.8 352L829.2 360M1155.3 360L1160 357.3M1160 357.3L1168 353M1170.2 352L1168 353M145.6 360L150.4 368M453.6 360L456 364M456 364L458.3 368M829.2 360L828.2 368M1142.8 368L1144 367.2M1144 367.2L1152 362M1155.3 360L1152 362M150.4 368L152 371.1M152 371.1L154.3 376M458.3 368L463.1 376M828.2 368L826.6 376M1132 376L1136 373M1142.8 368L1136 373M154.3 376L157.3 384M463.1 376L464 377.4M464 377.4L467.6 384M826.6 376L824.4 384M1122.4 384L1128 379.3M1132 376L1128 379.3M0 390.2L8 390.8M8 390.8L16 391.8M16 391.8L17 392M157.3 384L159.1 392M467.6 384L471.9 392M821.3 392L824 385M824.4 384L824 385M1114 392L1120 386.2M1122.4 384L1120 386.2M17 392L24 393.5M24 393.5L32 395.4M32 395.4L40 397.4M40 397.4L48 399.7M48 399.7L48.8 400M159.1 392L159.5 400M471.9 392L472 392.3M472 392.3L475.3 400M821.3 392L817.3 400M1106.7 400L1112 394.1M1114 392L1112 394.1M48.8 400L56 403.6M56 403.6L62.2 408M159.5 400L158.5 408M475.3 400L478.3 408M812.3 408L816 402.2M817.3 400L816 402.2M1100.5 408L1104 403.4M1106.7 400L1104 403.4M62.2 408L64 409.7M64 409.7L69.3 416M158.5 408L156 416M478.3 408L480 413.8M480 413.8L480.6 416M806.2 416L808 413.7M812.3 408L808 413.7M1095.4 416L1096 415M1100.5 408L1096 415M69.3 416L72 420.3M72 420.3L74.2 424M156 416L152.2 424M480.6 416L482.2 424M798.6 424L800 422.6M806.2 416L800 422.6M1095.4 416L1091.6 424M74.2 424L77.8 432M146.7 432L152 424.4M152.2 424L152 424.4M482.2 424L483.1 432M789 432L792 429.7M798.6 424L792 429.7M1091.6 424L1088.8 432M1194.4 432L1200 425.9M77.8 432L80 437.8M80 437.8L81 440M139.9 440L144 435.5M146.7 432L144 435.5M483.1 432L483.6 440M776.6 440L784 435.5M789 432L784 435.5M1087.1 440L1088 435.6M1088.8 432L1088 435.6M1187.1 440L1192 434.6M1194.4 432L1192 434.6M81 440L84.3 448M131.8 448L136 444.3M139.9 440L136 444.3M483.6 440L483.6 448M758.4 448L760 447.5M760 447.5L768 444.3M768 444.3L776 440.3M776.6 440L776 440.3M1087.1 440L1086.6 448M1179.7 448L1184 443.3M1187.1 440L1184 443.3M84.3 448L88 455.9M88 455.9L88.1 456M122.3 456L128 451.7M131.8 448L128 451.7M483.6 448L483.6 456M726.5 456L728 455.7M728 455.7L736 454.1M736 454.1L744 452.3M744 452.3L752 450.1M758.4 448L752 450.1M1086.6 448L1086.7 456M1172.2 456L1176 452M1179.7 448L1176 452M88.1 456L95.7 464M108.2 464L112 462.9M112 462.9L120 458M122.3 456L120 458M483.6 456L483.9 464M692.8 464L696 462.9M696 462.9L704 460.7M704 460.7L712 458.9M712 458.9L720 457.3M726.5 456L720 457.3M1086.7 456L1087.4 464M1164.1 464L1168 460.2M1172.2 456L1168 460.2M95.7 464L96 464.3M96 464.3L104 465.5M108.2 464L104 465.5M483.9 464L484.7 472M674.5 472L680 469.2M680 469.2L688 465.7M692.8 464L688 465.7M1087.4 464L1088 468.8M1088 468.8L1088.5 472M1155 472L1160 467.7M1164.1 464L1160 467.7M484.7 472L486.1 480M662.3 480L664 478.7M664 478.7L672 473.4M674.5 472L672 473.4M1088.5 472L1090.6 480M1144.6 480L1152 474.4M1155 472L1152 474.4M486.1 480L488 487.3M488 487.3L488.2 488M653.4 488L656 485.5M662.3 480L656 485.5M1090.6 480L1094 488M1131.4 488L1136 485.5M1136 485.5L1144 480.4M1144.6 480L1144 480.4M488.2 488L490.6 496M646.4 496L648 494.1M653.4 488L648 494.1M1094 488L1096 490.9M1096 490.9L1104 495.6M1104 495.6L1112 495.6M1112 495.6L1120 493.3M1120 493.3L1128 489.9M1131.4 488L1128 489.9M490.6 496L493.2 504M646.4 496L641.1 504M493.2 504L495.8 512M637.1 512L640 506.1M641.1 504L640 506.1M495.8 512L496 512.5M496 512.5L498.3 520M637.1 512L634.1 520M498.3 520L500.5 528M631.9 528L632 527.5M634.1 520L632 527.5M500.5 528L502.6 536M631.9 528L630.2 536M502.6 536L504 541.8M504 541.8L504.5 544M630.2 536L628.9 544M504.5 544L506.4 552M628.9 544L627.6 552M506.4 552L508.3 560M627.6 552L626.2 560M508.3 560L510.1 568M626.2 560L624.4 568M510.1 568L512 576M621.8 576L624 569.3M624.4 568L624 569.3M512 576L512 576.1M512 576.1L514.2 584M621.8 576L618.3 584M514.2 584L516.7 592M613.5 592L616 587.9M618.3 584L616 587.9M516.7 592L519.4 600M607.3 600L608 599.2M613.5 592L608 599.2M519.4 600L520 601.6M520 601.6L523.1 608M599.3 608L600 607.4M607.3 600L600 607.4M523.1 608L527.6 616M589.1 616L592 613.9M599.3 608L592 613.9M527.6 616L528 616.6M528 616.6L535 624M575.7 624L576 623.9M576 623.9L584 619.3M589.1 616L584 619.3M535 624L536 624.9M536 624.9L544 628.9M544 628.9L552 630.2M552 630.2L560 629.5M560 629.5L568 627.2M575.7 624L568 627.2" stroke="rgba(255,255,255,0.26)" stroke-width="0.9"/><path d="M623.4 56L624 55.7M624 55.7L632 53.1M632 53.1L640 51.7M640 51.7L648 51.9M648 51.9L656 53.6M656 53.6L661.6 56M609.6 64L616 59.6M623.4 56L616 59.6M661.6 56L664 57M664 57L672 62.1M672 62.1L674.2 64M601.6 72L608 65.2M609.6 64L608 65.2M674.2 64L680 69.3M680 69.3L682.4 72M596.3 80L600 74M601.6 72L600 74M682.4 72L688 78.9M688 78.9L688.8 80M596.3 80L592.5 88M688.8 80L694.1 88M590 96L592 89.3M592.5 88L592 89.3M694.1 88L696 90.9M696 90.9L699 96M590 96L588.5 104M699 96L704 104M588.5 104L587.6 112M704 104L704 104M704 104L709 112M587.6 112L587.2 120M709 112L712 116.1M712 116.1L714.7 120M587.2 120L587.2 128M714.7 120L720 126.5M720 126.5L721.3 128M587.2 128L587.6 136M721.3 128L728 135M728 135L729 136M587.6 136L588.1 144M729 136L736 142.2M736 142.2L738.1 144M588.1 144L588.6 152M738.1 144L744 148.6M744 148.6L748.7 152M588.6 152L589 160M748.7 152L752 154.3M752 154.3L760 159.6M760 159.6L760.6 160M589 160L589.2 168M760.6 160L768 164.8M768 164.8L773.1 168M589.2 168L588.9 176M773.1 168L776 169.9M776 169.9L784 175M784 175L785.5 176M588.9 176L588 184M785.5 176L792 180.5M792 180.5L797 184M0 186.4L4.4 192M588 184L586.3 192M797 184L800 186.4M800 186.4L806.8 192M4.4 192L8 196.8M8 196.8L10.3 200M583.4 200L584 198.5M586.3 192L584 198.5M806.8 192L808 193.2M808 193.2L814.6 200M10.3 200L16 207.7M16 207.7L16.2 208M583.4 200L579.1 208M814.6 200L816 201.8M816 201.8L820.5 208M16.2 208L22.2 216M573.1 216L576 212.4M579.1 208L576 212.4M820.5 208L824 215.1M824 215.1L824.4 216M22.2 216L24 218.3M24 218.3L28.2 224M564.8 224L568 221.2M573.1 216L568 221.2M824.4 216L826.9 224M28.2 224L32 228.7M32 228.7L34.4 232M553.6 232L560 227.7M564.8 224L560 227.7M826.9 224L827.9 232M34.4 232L40 239.2M40 239.2L40.6 240M539.2 240L544 237.5M544 237.5L552 233M553.6 232L552 233M827.9 232L827.7 240M40.6 240L46.9 248M523.5 248L528 245.7M528 245.7L536 241.6M539.2 240L536 241.6M827.7 240L826.4 248M46.9 248L48 249.3M48 249.3L53.4 256M509.3 256L512 254.3M512 254.3L520 249.8M523.5 248L520 249.8M826.4 248L824.3 256M53.4 256L56 259.5M56 259.5L59.5 264M497.3 264L504 259.3M509.3 256L504 259.3M821.6 264L824 256.8M824.3 256L824 256.8M59.5 264L64 270.5M64 270.5L65.1 272M487.5 272L488 271.5M488 271.5L496 264.9M497.3 264L496 264.9M821.6 264L818.8 272M65.1 272L69.9 280M479.8 280L480 279.8M487.5 272L480 279.8M818.8 272L816.1 280M69.9 280L72 284.2M72 284.2L74 288M479.8 280L474 288M813.7 288L816 280.3M816.1 280L816 280.3M74 288L77.3 296M469.7 296L472 291.6M474 288L472 291.6M813.7 288L811.7 296M77.3 296L79.8 304M469.7 296L466.9 304M811.7 296L810 304M79.8 304L80 304.9M80 304.9L81.7 312M466.9 304L465.4 312M810 304L808.8 312M81.7 312L82.9 320M465.4 312L465.2 320M808 320L808 319.8M808.8 312L808 319.8M82.9 320L83.2 328M465.2 320L466.1 328M808 320L807.5 328M83.2 328L82.5 336M466.1 328L468 336M807.5 328L807.1 336M82.5 336L80.1 344M468 336L470.9 344M807.1 336L806.8 344M74 352L80 344.1M80.1 344L80 344.1M470.9 344L472 346.5M472 346.5L474.3 352M806.8 344L806.4 352M59.4 360L64 358M64 358L72 353.5M74 352L72 353.5M474.3 352L478.2 360M806.4 352L805.7 360M18.3 368L24 367.6M24 367.6L32 366.8M32 366.8L40 365.4M40 365.4L48 363.5M48 363.5L56 361.1M59.4 360L56 361.1M478.2 360L480 363.6M480 363.6L482.1 368M805.7 360L804.6 368M0 369.3L8 368.7M8 368.7L16 368.1M18.3 368L16 368.1M482.1 368L486 376M804.6 368L802.9 376M486 376L488 380.3M488 380.3L489.6 384M802.9 376L800.5 384M1170.4 384L1176 383.7M1176 383.7L1177 384M489.6 384L493 392M797 392L800 385.1M800.5 384L800 385.1M1150.8 392L1152 391.2M1152 391.2L1160 387.3M1160 387.3L1168 384.2M1170.4 384L1168 384.2M1177 384L1181.8 392M493 392L496 399.6M496 399.6L496.2 400M797 392L792.3 400M1140.3 400L1144 397M1150.8 392L1144 397M1181.8 392L1179.3 400M496.2 400L498.9 408M785.9 408L792 400.4M792.3 400L792 400.4M1132.3 408L1136 404M1140.3 400L1136 404M1174.9 408L1176 406.1M1179.3 400L1176 406.1M498.9 408L501.4 416M777 416L784 409.9M785.9 408L784 409.9M1126.5 416L1128 413.7M1132.3 408L1128 413.7M1174.9 408L1169.2 416M501.4 416L503.6 424M763.7 424L768 421.8M768 421.8L776 416.7M777 416L776 416.7M1126.5 416L1123.1 424M1162.4 424L1168 417.5M1169.2 416L1168 417.5M503.6 424L504 425.9M504 425.9L505.4 432M740.3 432L744 431.1M744 431.1L752 428.7M752 428.7L760 425.7M763.7 424L760 425.7M1123.1 424L1122 432M1154.4 432L1160 426.6M1162.4 424L1160 426.6M505.4 432L507.1 440M700.6 440L704 439.2M704 439.2L712 437.6M712 437.6L720 436.1M720 436.1L728 434.6M728 434.6L736 433M740.3 432L736 433M1122 432L1125.3 440M1144.1 440L1152 434.2M1154.4 432L1152 434.2M507.1 440L508.7 448M676.5 448L680 446.5M680 446.5L688 443.5M688 443.5L696 441.1M700.6 440L696 441.1M1125.3 440L1128 442.4M1128 442.4L1136 443M1136 443L1144 440.1M1144.1 440L1144 440.1M508.7 448L510.5 456M661.4 456L664 454.4M664 454.4L672 450.1M676.5 448L672 450.1M510.5 456L512 461.3M512 461.3L512.8 464M649.5 464L656 459.4M661.4 456L656 459.4M512.8 464L515.7 472M639.5 472L640 471.6M640 471.6L648 465.1M649.5 464L648 465.1M515.7 472L519 480M630.8 480L632 478.9M639.5 472L632 478.9M519 480L520 482.5M520 482.5L522.6 488M623 488L624 487M630.8 480L624 487M522.6 488L526.3 496M616 496L616 496M623 488L616 496M526.3 496L528 500.2M528 500.2L529.8 504M616 496L609.6 504M529.8 504L532.9 512M604 512L608 506.5M609.6 504L608 506.5M532.9 512L535.1 520M599.8 520L600 519.6M604 512L600 519.6M535.1 520L536 524.8M536 524.8L536.7 528M599.8 520L596.2 528M536.7 528L538 536M596.2 528L593.8 536M538 536L538.9 544M592 544L592 543.9M593.8 536L592 543.9M538.9 544L539.7 552M592 544L590 552M539.7 552L540.9 560M590 552L587.8 560M540.9 560L542.6 568M587.8 560L585 568M542.6 568L544 572.6M544 572.6L545.6 576M580.2 576L584 570M585 568L584 570M545.6 576L551.2 584M572.1 584L576 581.1M580.2 576L576 581.1M551.2 584L552 584.8M552 584.8L560 587.8M560 587.8L568 586.5M572.1 584L568 586.5" stroke="rgba(255,255,255,0.26)" stroke-width="0.9"/><path d="M642.8 88L648 87.3M648 87.3L653 88M627.8 96L632 92.6M632 92.6L640 88.5M642.8 88L640 88.5M653 88L656 88.5M656 88.5L664 92.3M664 92.3L668.7 96M621.4 104L624 100.3M627.8 96L624 100.3M668.7 96L672 98.7M672 98.7L676.8 104M621.4 104L617.8 112M676.8 104L680 107.5M680 107.5L683.4 112M615.8 120L616 119.1M617.8 112L616 119.1M683.4 112L688 117.7M688 117.7L689.7 120M615.8 120L615.2 128M689.7 120L696 127.6M696 127.6L696.3 128M615.2 128L615.2 136M696.3 128L703.6 136M615.2 136L615.7 144M703.6 136L704 136.4M704 136.4L712 143.9M712 143.9L712.1 144M615.7 144L616 147.3M616 147.3L616.5 152M712.1 144L720 150.3M720 150.3L722.1 152M616.5 152L617.2 160M722.1 152L728 156.1M728 156.1L733.7 160M617.2 160L617.6 168M733.7 160L736 161.5M736 161.5L744 166.6M744 166.6L746.2 168M617.6 168L617.6 176M746.2 168L752 171.7M752 171.7L758.7 176M617.6 176L616.8 184M758.7 176L760 176.8M760 176.8L768 182.3M768 182.3L770.3 184M615.3 192L616 188.2M616.8 184L616 188.2M770.3 184L776 188.4M776 188.4L780.5 192M615.3 192L612.9 200M780.5 192L784 195.4M784 195.4L788.8 200M612.9 200L609.4 208M788.8 200L792 204M792 204L795.2 208M604.9 216L608 210.5M609.4 208L608 210.5M795.2 208L799.8 216M599.3 224L600 223M604.9 216L600 223M799.8 216L800 216.6M800 216.6L802.8 224M0 225L6.1 232M599.3 224L592.3 232M802.8 224L804.2 232M6.1 232L8 234.1M8 234.1L13.4 240M583.8 240L584 239.8M584 239.8L592 232.3M592.3 232L592 232.3M804.2 232L804.3 240M13.4 240L16 242.8M16 242.8L20.7 248M573.4 248L576 246.1M583.8 240L576 246.1M804.3 240L803.2 248M20.7 248L24 251.7M24 251.7L27.7 256M561 256L568 251.7M573.4 248L568 251.7M803.2 248L801.4 256M27.7 256L32 261.2M32 261.2L34.1 264M546.4 264L552 261.1M552 261.1L560 256.6M561 256L560 256.6M799.1 264L800 260.7M801.4 256L800 260.7M34.1 264L39.5 272M530.3 272L536 269.2M536 269.2L544 265.2M546.4 264L544 265.2M799.1 264L796.8 272M39.5 272L40 272.8M40 272.8L43.9 280M516 280L520 277.6M520 277.6L528 273.2M530.3 272L528 273.2M796.8 272L794.5 280M43.9 280L47.2 288M505.3 288L512 282.7M516 280L512 282.7M794.5 280L792.5 288M47.2 288L48 290.9M48 290.9L49.4 296M498 296L504 289.2M505.3 288L504 289.2M790.9 296L792 290.5M792.5 288L792 290.5M49.4 296L50.3 304M493.3 304L496 299.1M498 296L496 299.1M790.9 296L789.6 304M50.3 304L49.8 312M493.3 304L490.6 312M789.6 304L788.5 312M47.7 320L48 318.9M49.8 312L48 318.9M490.6 312L489.6 320M788.5 312L787.7 320M47.7 320L43.2 328M489.6 320L489.9 328M787.7 320L787 328M35.2 336L40 331.6M43.2 328L40 331.6M489.9 328L491.2 336M787 328L786.4 336M19.6 344L24 342.3M24 342.3L32 338.2M35.2 336L32 338.2M491.2 336L493.2 344M786.4 336L785.6 344M0 349.4L8 347.4M8 347.4L16 345.2M19.6 344L16 345.2M493.2 344L495.8 352M785.6 344L784.7 352M495.8 352L496 352.5M496 352.5L498.7 360M783.5 360L784 356.6M784.7 352L784 356.6M498.7 360L501.7 368M783.5 360L781.6 368M501.7 368L504 374M504 374L504.7 376M781.6 368L778.9 376M504.7 376L507.8 384M775.1 384L776 382.3M778.9 376L776 382.3M507.8 384L510.8 392M775.1 384L769.5 392M510.8 392L512 395.2M512 395.2L513.8 400M761.1 400L768 393.6M769.5 392L768 393.6M513.8 400L516.7 408M747.5 408L752 405.8M752 405.8L760 400.8M761.1 400L760 400.8M516.7 408L519.6 416M722 416L728 414.6M728 414.6L736 412.3M736 412.3L744 409.5M747.5 408L744 409.5M519.6 416L520 417.1M520 417.1L522.5 424M687.8 424L688 423.9M688 423.9L696 421.8M696 421.8L704 420M704 420L712 418.2M712 418.2L720 416.5M722 416L720 416.5M522.5 424L525.5 432M666.2 432L672 429.5M672 429.5L680 426.5M687.8 424L680 426.5M525.5 432L528 438.7M528 438.7L528.6 440M651.6 440L656 437.3M656 437.3L664 433M666.2 432L664 433M528.6 440L532.1 448M639.9 448L640 447.9M640 447.9L648 442.3M651.6 440L648 442.3M532.1 448L536 455.5M536 455.5L536.3 456M629.4 456L632 454M639.9 448L632 454M536.3 456L542 464M618.6 464L624 460.1M629.4 456L624 460.1M542 464L544 466.5M544 466.5L549.8 472M606.7 472L608 471.3M608 471.3L616 466M618.6 464L616 466M549.8 472L552 474M552 474L560 479M560 479L562.8 480M590.1 480L592 479.5M592 479.5L600 476M606.7 472L600 476M562.8 480L568 481.9M568 481.9L576 482.8M576 482.8L584 481.9M590.1 480L584 481.9" stroke="rgba(255,255,255,0.62)" stroke-width="1.6"/><path d="M664.1 168L672 161.4M672 161.4L680 160.2M680 160.2L688 161.3M688 161.3L696 163.6M696 163.6L704 166.5M704 166.5L707.4 168M659.5 176L664 168.1M664.1 168L664 168.1M707.4 168L712 169.7M712 169.7L720 173.3M720 173.3L725.7 176M655.7 184L656 183.1M659.5 176L656 183.1M725.7 176L728 177M728 177L736 181.2M736 181.2L741 184M655.7 184L651.9 192M741 184L744 185.7M744 185.7L752 190.9M752 190.9L753.6 192M647.8 200L648 199.5M651.9 192L648 199.5M753.6 192L760 197M760 197L763.6 200M647.8 200L642.9 208M763.6 200L768 204.5M768 204.5L771.2 208M637.2 216L640 212.1M642.9 208L640 212.1M771.2 208L776 215M776 215L776.7 216M630.6 224L632 222.3M637.2 216L632 222.3M776.7 216L780.2 224M623.3 232L624 231.1M630.6 224L624 231.1M780.2 224L782.2 232M615.6 240L616 239.6M623.3 232L616 239.6M782.2 232L782.7 240M607.6 248L608 247.6M615.6 240L608 247.6M782.7 240L782.2 248M599.1 256L600 255.2M607.6 248L600 255.2M782.2 248L780.9 256M0 257.9L5.3 264M590.1 264L592 262.4M599.1 256L592 262.4M780.9 256L779.2 264M5.3 264L8 267.5M8 267.5L11.4 272M579.8 272L584 268.9M590.1 264L584 268.9M779.2 264L777.4 272M11.4 272L16 279.9M16 279.9L16 280M567.6 280L568 279.7M568 279.7L576 274.7M579.8 272L576 274.7M775.7 280L776 278.4M777.4 272L776 278.4M16 280L19 288M553.2 288L560 284.3M567.6 280L560 284.3M775.7 280L774.1 288M19 288L20.2 296M539.3 296L544 293.2M544 293.2L552 288.7M553.2 288L552 288.7M774.1 288L772.8 296M20.2 296L19.3 304M528.7 304L536 298.3M539.3 296L536 298.3M772.8 296L771.6 304M15.8 312L16 311.5M19.3 304L16 311.5M521.6 312L528 304.6M528.7 304L528 304.6M771.6 304L770.6 312M15.8 312L8.5 320M517.5 320L520 314.8M521.6 312L520 314.8M770.6 312L769.6 320M0 325.4L8 320.3M8.5 320L8 320.3M517.5 320L515.3 328M769.6 320L768.6 328M515.3 328L514.7 336M767.5 336L768 332.6M768.6 328L768 332.6M514.7 336L515 344M767.5 336L766.1 344M515 344L516.2 352M766.1 344L764.2 352M516.2 352L517.9 360M764.2 352L761.7 360M517.9 360L520 368M758.1 368L760 364M761.7 360L760 364M520 368L520 368.1M520 368.1L522.4 376M758.1 368L752.9 376M522.4 376L525.1 384M745.1 384L752 377.1M752.9 376L752 377.1M525.1 384L527.9 392M732.6 392L736 390.2M736 390.2L744 384.9M745.1 384L744 384.9M527.9 392L528 392.2M528 392.2L531.1 400M711.2 400L712 399.8M712 399.8L720 397.2M720 397.2L728 394.1M732.6 392L728 394.1M531.1 400L534.6 408M682.5 408L688 406.4M688 406.4L696 404.2M696 404.2L704 402M711.2 400L704 402M534.6 408L536 411.2M536 411.2L538.4 416M660.4 416L664 414.4M664 414.4L672 411.4M672 411.4L680 408.7M682.5 408L680 408.7M538.4 416L542.6 424M644.5 424L648 422M648 422L656 418M660.4 416L656 418M542.6 424L544 426.4M544 426.4L547.8 432M631.5 432L632 431.7M632 431.7L640 426.6M644.5 424L640 426.6M547.8 432L552 437.7M552 437.7L554.2 440M619.3 440L624 437.1M631.5 432L624 437.1M554.2 440L560 445.6M560 445.6L563.8 448M605.3 448L608 446.8M608 446.8L616 442.2M619.3 440L616 442.2M563.8 448L568 450.5M568 450.5L576 453.1M576 453.1L584 453.7M584 453.7L592 452.8M592 452.8L600 450.4M605.3 448L600 450.4" stroke="rgba(255,255,255,0.26)" stroke-width="0.9"/><path d="M694.9 200L696 199.5M696 199.5L704 197.5M704 197.5L712 197.3M712 197.3L720 198.5M720 198.5L725 200M682.4 208L688 203.6M694.9 200L688 203.6M725 200L728 201M728 201L736 204.8M736 204.8L741 208M673.9 216L680 209.9M682.4 208L680 209.9M741 208L744 210.2M744 210.2L750.1 216M666.1 224L672 217.8M673.9 216L672 217.8M750.1 216L752 218.4M752 218.4L755.7 224M658.2 232L664 226.1M666.1 224L664 226.1M755.7 224L759.1 232M649.6 240L656 234.1M658.2 232L656 234.1M759.1 232L760 236M760 236L760.7 240M640.4 248L648 241.4M649.6 240L648 241.4M760.7 240L761 248M631 256L632 255.1M632 255.1L640 248.3M640.4 248L640 248.3M761 248L760.4 256M622.1 264L624 262.2M631 256L624 262.2M759.4 264L760 259.6M760.4 256L760 259.6M613.7 272L616 269.8M622.1 264L616 269.8M759.4 264L758.3 272M604.8 280L608 277.2M613.7 272L608 277.2M758.3 272L757.1 280M594.8 288L600 284M604.8 280L600 284M757.1 280L756.1 288M583.4 296L584 295.6M584 295.6L592 290.1M594.8 288L592 290.1M756.1 288L755 296M571 304L576 300.8M583.4 296L576 300.8M755 296L754.1 304M559.3 312L560 311.5M560 311.5L568 306M571 304L568 306M754.1 304L753 312M550 320L552 318.1M559.3 312L552 318.1M751.9 320L752 319.2M753 312L752 319.2M543.8 328L544 327.6M550 320L544 327.6M751.9 320L750.4 328M543.8 328L540 336M750.4 328L748.6 336M540 336L538 344M748.6 336L746.1 344M538 344L537.3 352M742.8 352L744 349.3M746.1 344L744 349.3M537.3 352L537.7 360M742.8 352L738 360M537.7 360L539 368M730.9 368L736 362.5M738 360L736 362.5M539 368L540.9 376M720.2 376L728 370.5M730.9 368L728 370.5M540.9 376L543.4 384M702.9 384L704 383.6M704 383.6L712 380.2M712 380.2L720 376.1M720.2 376L720 376.1M543.4 384L544 385.6M544 385.6L546.7 392M678.4 392L680 391.5M680 391.5L688 388.9M688 388.9L696 386.4M702.9 384L696 386.4M546.7 392L550.6 400M655.7 400L656 399.9M656 399.9L664 396.8M664 396.8L672 394M678.4 392L672 394M550.6 400L552 402.5M552 402.5L555.7 408M638.4 408L640 407.2M640 407.2L648 403.3M655.7 400L648 403.3M555.7 408L560 413.6M560 413.6L562.4 416M623.5 416L624 415.8M624 415.8L632 411.4M638.4 408L632 411.4M562.4 416L568 421M568 421L573.1 424M607.2 424L608 423.8M608 423.8L616 420M623.5 416L616 420M573.1 424L576 425.5M576 425.5L584 427.7M584 427.7L592 427.9M592 427.9L600 426.5M607.2 424L600 426.5" stroke="rgba(255,255,255,0.26)" stroke-width="0.9"/><path d="M691.9 240L696 237.6M696 237.6L704 234.3M704 234.3L712 233M712 233L720 234.6M720 234.6L727.8 240M679.8 248L680 247.8M680 247.8L688 242.3M691.9 240L688 242.3M727.8 240L728 240.2M728 240.2L732.1 248M669.4 256L672 253.9M679.8 248L672 253.9M732.1 248L734.2 256M659.5 264L664 260.3M669.4 256L664 260.3M734.2 256L735.2 264M649.7 272L656 266.8M659.5 264L656 266.8M735.2 264L735.5 272M639.8 280L640 279.9M640 279.9L648 273.4M649.7 272L648 273.4M735.5 272L735.6 280M629.9 288L632 286.3M639.8 280L632 286.3M735.6 280L735.4 288M619.9 296L624 292.7M629.9 288L624 292.7M735.4 288L734.9 296M609.6 304L616 299.1M619.9 296L616 299.1M734.9 296L734.3 304M598.7 312L600 311.1M600 311.1L608 305.2M609.6 304L608 305.2M734.3 304L733.2 312M587.7 320L592 316.9M598.7 312L592 316.9M733.2 312L731.8 320M577.8 328L584 322.9M587.7 320L584 322.9M731.8 320L729.8 328M570.2 336L576 329.7M577.8 328L576 329.7M726.8 336L728 333M729.8 328L728 333M565.1 344L568 339.2M570.2 336L568 339.2M726.8 336L722.5 344M565.1 344L562.2 352M716.1 352L720 347.5M722.5 344L720 347.5M562.2 352L561.1 360M706.5 360L712 355.8M716.1 352L712 355.8M561.1 360L561.6 368M691.3 368L696 365.9M696 365.9L704 361.6M706.5 360L704 361.6M561.6 368L563.6 376M669.2 376L672 375M672 375L680 372.2M680 372.2L688 369.3M691.3 368L688 369.3M563.6 376L566.9 384M646.7 384L648 383.5M648 383.5L656 380.4M656 380.4L664 377.7M669.2 376L664 377.7M566.9 384L568 385.8M568 385.8L572.7 392M628.1 392L632 390.2M632 390.2L640 386.7M646.7 384L640 386.7M572.7 392L576 395.2M576 395.2L583.6 400M608.8 400L616 397.3M616 397.3L624 393.9M628.1 392L624 393.9M583.6 400L584 400.2M584 400.2L592 402.1M592 402.1L600 402M600 402L608 400.3M608.8 400L608 400.3" stroke="rgba(255,255,255,0.26)" stroke-width="0.9"/></svg>
